<svg width="111" height="50" viewBox="0 0 111 50" fill="none" xmlns="http://www.w3.org/2000/svg">
<g id="Layer 1">
<g id="Group">
<path id="Vector" d="M83.3483 27.9345H79.3141V22.6427H83.2159C84.54 22.6427 85.5434 22.8554 86.1974 23.2746C86.8348 23.6832 87.1445 24.329 87.1445 25.2489C87.1445 27.056 85.9028 27.9345 83.3483 27.9345ZM79.3141 14.8155H82.3169C83.7113 14.8155 84.7575 14.972 85.4264 15.2809C86.0576 15.5727 86.3645 16.1562 86.3645 17.0647C86.3645 17.487 86.262 17.8735 86.0559 18.2199C85.7939 18.7029 85.4269 19.0207 84.9343 19.1919C84.4223 19.3694 83.6795 19.4595 82.7269 19.4595H79.3141V14.8155ZM87.9594 20.7754C89.698 19.84 90.5789 18.42 90.5789 16.549C90.5789 15.9656 90.4815 15.4041 90.2901 14.8799C90.0988 14.3556 89.8168 13.87 89.4515 13.4364C89.0884 13.0045 88.6636 12.6421 88.19 12.3594C87.6349 12.0232 86.9994 11.7925 86.3009 11.6742C85.6158 11.5586 84.7958 11.5 83.8638 11.5H77.5834C76.6996 11.5 76.0443 11.7074 75.636 12.1156C75.2273 12.5244 75.02 13.1884 75.02 14.0899V26.1551V28.66V31.25H77.5834H78.705H83.507C84.5333 31.25 85.4444 31.1981 86.2146 31.0961C86.9934 30.9937 87.6944 30.8136 88.3009 30.5601C89.2733 30.1331 90.0569 29.4625 90.6293 28.5674C91.2011 27.6732 91.4914 26.6547 91.4914 25.5399C91.4914 23.2494 90.3039 21.6484 87.9594 20.7754Z" fill="#2058BB"/>
<path id="Vector_2" d="M62.3933 16.0916L62.417 16.1568L62.4409 16.0916L65.0405 23.339H62.417H59.7935L62.3933 16.0916ZM58.638 26.641H62.417H66.1961L67.8884 31.2178H72.3341L71.0993 28.0956C71.0384 27.9356 70.972 27.7653 70.8951 27.5748L65.4506 13.7431C65.2493 13.2285 65.0305 12.7936 64.8001 12.4504C64.5616 12.0948 64.2441 11.803 63.8564 11.5834C63.4658 11.3624 62.9816 11.2503 62.417 11.2501C61.8524 11.2503 61.3684 11.3624 60.9778 11.5834C60.59 11.803 60.2725 12.0948 60.034 12.4504C59.8035 12.7936 59.5848 13.2285 59.3835 13.7431L53.939 27.5748C53.8621 27.7653 53.7958 27.9356 53.7348 28.0956L52.5 31.2178H56.9458L58.638 26.641Z" fill="#2058BB"/>
<path id="Vector_3" d="M102.423 27.9345H98.3887V22.6427H102.29C103.615 22.6427 104.618 22.8554 105.272 23.2746C105.909 23.6832 106.219 24.329 106.219 25.2489C106.219 27.056 104.977 27.9345 102.423 27.9345ZM98.3887 14.8155H101.391C102.786 14.8155 103.832 14.972 104.501 15.2809C105.132 15.5727 105.439 16.1562 105.439 17.0647C105.439 17.487 105.337 17.8735 105.131 18.2199C104.869 18.7029 104.502 19.0207 104.009 19.1919C103.497 19.3694 102.754 19.4595 101.802 19.4595H98.3887V14.8155ZM107.034 20.7754C108.773 19.84 109.653 18.42 109.653 16.549C109.653 15.9656 109.556 15.4041 109.365 14.8799C109.173 14.3556 108.891 13.87 108.526 13.4364C108.163 13.0045 107.738 12.6421 107.265 12.3594C106.709 12.0232 106.074 11.7925 105.375 11.6742C104.69 11.5586 103.87 11.5 102.938 11.5H96.658C95.7744 11.5 95.119 11.7074 94.7106 12.1156C94.3019 12.5244 94.0947 13.1884 94.0947 14.0899V26.1551V28.66V31.25H96.658H97.7797H102.582C103.608 31.25 104.519 31.1981 105.289 31.0961C106.068 30.9937 106.769 30.8136 107.375 30.5601C108.348 30.1331 109.132 29.4625 109.704 28.5674C110.276 27.6732 110.566 26.6547 110.566 25.5399C110.566 23.2494 109.378 21.6484 107.034 20.7754Z" fill="#2058BB"/>
<path id="Vector_4" d="M9.38634 25C6.58109 20.4637 5.07959 15.0964 6.08872 9.65837C6.43297 7.8035 7.92134 6.3625 9.78497 6.069C11.4523 5.80625 12.6576 5.67462 15.0193 5.87087C14.1682 7.28387 13.6647 8.69312 13.1352 10.0627C11.9556 10.0199 10.7538 10.2559 10.3732 10.3732C9.41472 13.9161 10.6516 19.9817 14.3883 25H9.38634Z" fill="#2058BB"/>
<path id="Vector_5" d="M13.9592 13.9596C15.1832 8.76833 17.9169 3.9112 22.4756 0.779575C24.0307 -0.288675 26.1021 -0.255051 27.6275 0.855076C28.9922 1.84833 29.9375 2.60758 31.4689 4.41633C29.8679 4.81358 28.5152 5.45408 27.1724 6.0482C26.3685 5.1837 25.352 4.50083 24.9997 4.3147C21.8169 6.14208 18.4024 11.306 17.4962 17.4966L13.9592 13.9596Z" fill="#2058BB"/>
<path id="Vector_6" d="M24.9998 9.38653C29.5361 6.58128 34.9034 5.07965 40.3414 6.08878C42.1964 6.43303 43.6373 7.9214 43.9309 9.78503C44.1935 11.4524 44.3251 12.6577 44.129 15.0195C42.716 14.1684 41.3068 13.6649 39.9371 13.1353C39.9799 11.9558 39.744 10.754 39.6265 10.3734C36.0836 9.41491 30.0179 10.6518 24.9998 14.3885V9.38653Z" fill="#2058BB"/>
<path id="Vector_7" d="M36.0404 13.9596C41.2317 15.1836 46.0887 17.9171 49.2203 22.476C50.2887 24.031 50.255 26.1024 49.1449 27.6279C48.1517 28.9926 47.3924 29.9379 45.5837 31.4692C45.1863 29.8682 44.5459 28.5156 43.9518 27.1727C44.8163 26.3689 45.499 25.3524 45.6853 25.0001C43.8578 21.8171 38.694 18.4027 32.5034 17.4966L36.0404 13.9596Z" fill="#2058BB"/>
<path id="Vector_8" d="M40.6135 24.9997C43.4187 29.536 44.9202 34.9033 43.9111 40.3413C43.5668 42.1963 42.0785 43.6372 40.2148 43.9308C38.5475 44.1935 37.3422 44.3252 34.9805 44.1288C35.8315 42.716 36.335 41.3067 36.8646 39.937C38.0442 39.9798 39.246 39.7438 39.6266 39.6266C40.585 36.0836 39.3482 30.018 35.6113 24.9997H40.6135Z" fill="#2058BB"/>
<path id="Vector_9" d="M36.0404 36.0404C34.8163 41.2316 32.0828 46.0886 27.5239 49.2202C25.9689 50.2886 23.8975 50.255 22.3721 49.1449C21.0074 48.1516 20.0621 47.3924 18.5308 45.5836C20.1318 45.1862 21.4843 44.5459 22.8271 43.9517C23.6311 44.8161 24.6476 45.499 24.9999 45.6852C28.1828 43.8577 31.5973 38.694 32.5034 32.5034L36.0404 36.0404Z" fill="#2058BB"/>
<path id="Vector_10" d="M24.9998 40.6136C20.4635 43.4188 15.0962 44.9203 9.65821 43.9113C7.80321 43.5671 6.36233 42.0787 6.06871 40.2151C5.80608 38.5477 5.67434 37.3423 5.87059 34.9806C7.28371 35.8317 8.69284 36.3352 10.0625 36.8647C10.0197 38.0443 10.2557 39.2461 10.3731 39.6267C13.916 40.5852 19.9816 39.3483 24.9998 35.6115V40.6136Z" fill="#2058BB"/>
<path id="Vector_11" d="M13.9596 36.0405C8.76839 34.8165 3.91139 32.083 0.779639 27.5242C-0.288612 25.9692 -0.254986 23.8976 0.855264 22.3723C1.84839 21.0075 2.60764 20.0623 4.41651 18.5309C4.81376 20.1319 5.45414 21.4845 6.04826 22.8274C5.18376 23.6313 4.50102 24.6478 4.31476 25C6.14214 28.183 11.306 31.5974 17.4966 32.5035L13.9596 36.0405Z" fill="#2058BB"/>
<path id="Vector_12" d="M53.5289 36.9471H54.437L53.981 35.8921L53.5289 36.9471ZM52.6133 37.9946L53.7738 35.3381H54.2034L55.3639 37.9946H54.874L54.6065 37.3579H53.3594L53.088 37.9946H52.6133Z" fill="#2058BB"/>
<path id="Vector_13" d="M55.6726 37.9946V37.6819L56.8219 36.3781H55.7141V36.0051H57.4022V36.3179L56.253 37.6216H57.4022V37.9946H55.6726Z" fill="#2058BB"/>
<path id="Vector_14" d="M59.1997 37.1393H58.1748C58.1898 37.2926 58.2413 37.4181 58.3292 37.5161C58.417 37.6141 58.5339 37.663 58.6797 37.663C58.8178 37.663 58.9333 37.6154 59.0263 37.5199C59.1192 37.4244 59.177 37.2976 59.1997 37.1393ZM58.6307 35.9599C58.922 35.9599 59.1652 36.056 59.3598 36.2481C59.5544 36.4403 59.6518 36.6871 59.6518 36.9886V36.996C59.6518 37.2876 59.5602 37.5336 59.3768 37.7346C59.1933 37.9356 58.9597 38.0361 58.6759 38.0361C58.3744 38.0361 58.1402 37.9338 57.973 37.729C57.806 37.5243 57.7227 37.27 57.7227 36.9659C57.7227 36.9409 57.725 36.8981 57.73 36.8379H59.192C59.1669 36.6771 59.1029 36.5529 58.9999 36.4648C58.8969 36.3769 58.7713 36.333 58.6232 36.333C58.4272 36.333 58.2463 36.4121 58.0805 36.5703L57.8129 36.333C58.0214 36.0843 58.294 35.9599 58.6307 35.9599Z" fill="#2058BB"/>
<path id="Vector_15" d="M60.1079 37.9946V36.0051H60.5677V36.4535C60.7083 36.1144 60.9432 35.9524 61.2722 35.9674V36.4498H61.2459C61.0374 36.4498 60.8722 36.517 60.7504 36.6514C60.6284 36.7858 60.5677 36.9811 60.5677 37.2373V37.9946H60.1079Z" fill="#2058BB"/>
<path id="Vector_16" d="M62.2819 37.4615C62.3949 37.5808 62.5319 37.6405 62.6927 37.6405C62.8534 37.6405 62.9884 37.582 63.0977 37.4651C63.2069 37.3485 63.2617 37.1945 63.2617 37.0036V36.996C63.2617 36.8078 63.2064 36.6545 63.0959 36.5364C62.9853 36.4183 62.8509 36.3594 62.6927 36.3594C62.5319 36.3594 62.3949 36.419 62.2819 36.5383C62.1689 36.6576 62.1124 36.8103 62.1124 36.996V37.0036C62.1124 37.1895 62.1689 37.3421 62.2819 37.4615ZM62.8019 38.0361C62.5256 38.0361 62.2996 37.9193 62.1237 37.6856V37.9946H61.6641V35.244H62.1237V36.3366C62.2996 36.088 62.5256 35.9638 62.8019 35.9638C63.0506 35.9638 63.2667 36.0566 63.4501 36.2425C63.6333 36.4284 63.7252 36.6795 63.7252 36.996V37.0036C63.7252 37.3201 63.6341 37.5714 63.4519 37.7573C63.2698 37.9433 63.0532 38.0361 62.8019 38.0361Z" fill="#2058BB"/>
<path id="Vector_17" d="M64.8969 37.7046C65.0502 37.7046 65.177 37.665 65.2775 37.5859C65.378 37.5068 65.4283 37.4045 65.4283 37.2788V37.1431C65.2925 37.0904 65.1419 37.064 64.9762 37.064C64.8278 37.064 64.7129 37.0929 64.6313 37.1506C64.5497 37.2085 64.5089 37.2901 64.5089 37.3955V37.4031C64.5089 37.4961 64.5453 37.5696 64.6182 37.6236C64.691 37.6776 64.7839 37.7046 64.8969 37.7046ZM64.7689 38.0361C64.5704 38.0361 64.4027 37.9823 64.2658 37.8741C64.1288 37.7661 64.0605 37.6154 64.0605 37.4219V37.4145C64.0605 37.2034 64.1352 37.044 64.2847 36.9359C64.434 36.8279 64.6344 36.7739 64.8857 36.7739C65.069 36.7739 65.2474 36.8015 65.4207 36.8568V36.8078C65.4207 36.519 65.2562 36.3744 64.927 36.3744C64.7463 36.3744 64.5565 36.4159 64.358 36.4989L64.2338 36.1408C64.4875 36.0329 64.7387 35.9788 64.9874 35.9788C65.2838 35.9788 65.5037 36.0529 65.6468 36.2011C65.79 36.3443 65.8615 36.5491 65.8615 36.8154V37.9946H65.4169V37.746C65.2562 37.9395 65.0402 38.0361 64.7689 38.0361Z" fill="#2058BB"/>
<path id="Vector_18" d="M67.1915 37.4821L67.7115 36.0051H68.1863L67.395 38.0474C67.3145 38.2534 67.2254 38.3984 67.1274 38.4826C67.0295 38.5668 66.9002 38.6089 66.7394 38.6089C66.571 38.6089 66.414 38.5674 66.2683 38.4845L66.4229 38.1491C66.5183 38.1993 66.6074 38.2244 66.6904 38.2244C66.7582 38.2244 66.8129 38.2075 66.8543 38.1736C66.8958 38.1398 66.9353 38.0813 66.973 37.9984L66.144 36.0051H66.6339L67.1915 37.4821Z" fill="#2058BB"/>
<path id="Vector_19" d="M69.3846 38.04C69.0906 38.04 68.8457 37.9402 68.6498 37.7405C68.4538 37.5408 68.356 37.2978 68.356 37.0114V37.0038C68.356 36.7174 68.4545 36.4725 68.6517 36.269C68.8488 36.0655 69.0956 35.9639 69.3922 35.9639C69.7061 35.9639 69.9711 36.0782 70.1872 36.3068L69.9008 36.6119C69.7425 36.4462 69.5717 36.3633 69.3883 36.3633C69.2251 36.3633 69.0881 36.4248 68.9776 36.5478C68.867 36.671 68.8118 36.8204 68.8118 36.9962V37.0038C68.8118 37.1823 68.8677 37.3329 68.9796 37.4559C69.0912 37.579 69.2338 37.6407 69.4072 37.6407C69.5881 37.6407 69.7601 37.5589 69.9235 37.3957L70.1985 37.667C70.0903 37.7875 69.9736 37.8799 69.8481 37.9439C69.7223 38.0079 69.568 38.04 69.3846 38.04Z" fill="#2058BB"/>
<path id="Vector_20" d="M71.3176 37.7046C71.4708 37.7046 71.5977 37.665 71.6982 37.5859C71.7987 37.5068 71.849 37.4045 71.849 37.2788V37.1431C71.7132 37.0904 71.5626 37.064 71.3968 37.064C71.2485 37.064 71.1336 37.0929 71.052 37.1506C70.9703 37.2085 70.9296 37.2901 70.9296 37.3955V37.4031C70.9296 37.4961 70.966 37.5696 71.0388 37.6236C71.1117 37.6776 71.2046 37.7046 71.3176 37.7046ZM71.1896 38.0361C70.9911 38.0361 70.8233 37.9823 70.6865 37.8741C70.5495 37.7661 70.4812 37.6154 70.4812 37.4219V37.4145C70.4812 37.2034 70.5558 37.044 70.7053 36.9359C70.8547 36.8279 71.0551 36.7739 71.3063 36.7739C71.4897 36.7739 71.6681 36.8015 71.8413 36.8568V36.8078C71.8413 36.519 71.6768 36.3744 71.3477 36.3744C71.167 36.3744 70.9772 36.4159 70.7787 36.4989L70.6545 36.1408C70.9082 36.0329 71.1593 35.9788 71.4081 35.9788C71.7045 35.9788 71.9243 36.0529 72.0675 36.2011C72.2107 36.3443 72.2822 36.5491 72.2822 36.8154V37.9946H71.8376V37.746C71.6768 37.9395 71.4608 38.0361 71.1896 38.0361Z" fill="#2058BB"/>
<path id="Vector_21" d="M72.8247 37.9946V36.0051H73.2845V36.3103C73.4502 36.0793 73.6575 35.9638 73.9061 35.9638C74.1296 35.9638 74.3037 36.0321 74.428 36.1691C74.5523 36.306 74.6145 36.4913 74.6145 36.7249V37.9946H74.1586V36.8643C74.1586 36.7085 74.1215 36.5886 74.0475 36.5044C73.9732 36.4203 73.8685 36.3781 73.7328 36.3781C73.5972 36.3781 73.4886 36.4221 73.4068 36.51C73.3252 36.598 73.2845 36.7186 73.2845 36.8719V37.9946H72.8247Z" fill="#2058BB"/>
<path id="Vector_22" d="M78.5334 37.2221V37.2146C78.5334 36.9786 78.3525 36.8604 77.9908 36.8604H77.2559V37.584H78.0247C78.1854 37.584 78.3104 37.5531 78.3997 37.4915C78.4888 37.43 78.5334 37.3403 78.5334 37.2221ZM78.3864 36.1105V36.1031C78.3864 35.9975 78.3469 35.9154 78.2677 35.8563C78.1885 35.7974 78.0737 35.7676 77.9229 35.7676H77.2559V36.4686H77.889C78.0448 36.4686 78.1665 36.4384 78.2545 36.3781C78.3424 36.3179 78.3864 36.2288 78.3864 36.1105ZM76.8 37.9946V35.357H77.9833C78.287 35.357 78.5169 35.4349 78.6728 35.5906C78.7909 35.7088 78.8498 35.8544 78.8498 36.0276V36.0353C78.8498 36.2966 78.7242 36.4925 78.4732 36.623C78.6439 36.6833 78.7739 36.7625 78.863 36.8604C78.9523 36.9585 78.9968 37.0929 78.9968 37.2636V37.2713C78.9968 37.5023 78.9089 37.6806 78.7332 37.8063C78.5572 37.9319 78.3198 37.9946 78.0208 37.9946H76.8Z" fill="#2058BB"/>
<path id="Vector_23" d="M79.8105 36.8605H80.8318C80.8166 36.7073 80.7651 36.5818 80.6773 36.4837C80.5891 36.3858 80.4724 36.3368 80.3268 36.3368C80.1861 36.3368 80.0699 36.3845 79.9783 36.4799C79.8865 36.5755 79.8306 36.7023 79.8105 36.8605ZM80.3795 38.04C80.0881 38.04 79.845 37.9439 79.6504 37.7517C79.4556 37.5595 79.3584 37.3114 79.3584 37.0075V36.9999C79.3584 36.7085 79.45 36.463 79.6335 36.2634C79.8168 36.0637 80.0491 35.9638 80.3305 35.9638C80.632 35.9638 80.8661 36.0662 81.0333 36.2708C81.2003 36.4757 81.2839 36.7299 81.2839 37.0339C81.2839 37.059 81.2814 37.1018 81.2764 37.162H79.8143C79.8394 37.3228 79.9034 37.447 80.0064 37.535C80.1095 37.623 80.2363 37.6669 80.387 37.6669C80.5805 37.6669 80.7601 37.5878 80.9259 37.4295L81.1934 37.6669C80.9824 37.9155 80.7111 38.04 80.3795 38.04Z" fill="#2058BB"/>
<path id="Vector_24" d="M82.5086 37.4821L83.0286 36.0051H83.5033L82.7121 38.0474C82.6316 38.2534 82.5424 38.3984 82.4444 38.4826C82.3464 38.5668 82.2171 38.6089 82.0564 38.6089C81.8881 38.6089 81.7309 38.5674 81.5853 38.4845L81.7399 38.1491C81.8353 38.1993 81.9244 38.2244 82.0073 38.2244C82.0752 38.2244 82.1299 38.2075 82.1713 38.1736C82.2128 38.1398 82.2523 38.0813 82.2899 37.9984L81.4609 36.0051H81.9508L82.5086 37.4821Z" fill="#2058BB"/>
<path id="Vector_25" d="M83.8914 37.9946V36.0051H84.3511V36.3103C84.5169 36.0793 84.7241 35.9638 84.9727 35.9638C85.1962 35.9638 85.3704 36.0321 85.4946 36.1691C85.619 36.306 85.6811 36.4913 85.6811 36.7249V37.9946H85.2252V36.8643C85.2252 36.7085 85.1881 36.5886 85.1141 36.5044C85.0399 36.4203 84.9351 36.3781 84.7995 36.3781C84.6639 36.3781 84.5552 36.4221 84.4735 36.51C84.3919 36.598 84.3511 36.7186 84.3511 36.8719V37.9946H83.8914Z" fill="#2058BB"/>
<path id="Vector_26" d="M87.5954 37.1393H86.5705C86.5855 37.2926 86.637 37.4181 86.725 37.5161C86.8129 37.6141 86.9298 37.663 87.0754 37.663C87.2135 37.663 87.3292 37.6154 87.422 37.5199C87.5149 37.4244 87.5728 37.2976 87.5954 37.1393ZM87.0264 35.9599C87.3178 35.9599 87.5609 36.056 87.7555 36.2481C87.9502 36.4403 88.0475 36.6871 88.0475 36.9886V36.996C88.0475 37.2876 87.9559 37.5336 87.7725 37.7346C87.589 37.9356 87.3555 38.0361 87.0717 38.0361C86.7702 38.0361 86.5359 37.9338 86.3689 37.729C86.2019 37.5243 86.1184 37.27 86.1184 36.9659C86.1184 36.9409 86.1208 36.8981 86.1259 36.8379H87.5878C87.5627 36.6771 87.4988 36.5529 87.3957 36.4648C87.2927 36.3769 87.167 36.333 87.0189 36.333C86.8229 36.333 86.642 36.4121 86.4763 36.5703L86.2088 36.333C86.4173 36.0843 86.6898 35.9599 87.0264 35.9599Z" fill="#2058BB"/>
<path id="Vector_27" d="M88.5298 35.244H88.9895V37.9946H88.5298V35.244Z" fill="#2058BB"/>
<path id="Vector_28" d="M89.9354 36.0051L90.3912 36.6721L90.8546 36.0051H91.3407L90.64 36.9773L91.3709 37.9946H90.8736L90.3837 37.2863L89.8976 37.9946H89.4116L90.1387 36.9811L89.438 36.0051H89.9354Z" fill="#2058BB"/>
<path id="Vector_29" d="M92.4145 37.7046C92.5678 37.7046 92.6946 37.665 92.7951 37.5859C92.8956 37.5068 92.9459 37.4045 92.9459 37.2788V37.1431C92.8101 37.0904 92.6595 37.064 92.4938 37.064C92.3454 37.064 92.2305 37.0929 92.1489 37.1506C92.0673 37.2085 92.0265 37.2901 92.0265 37.3955V37.4031C92.0265 37.4961 92.0629 37.5696 92.1358 37.6236C92.2086 37.6776 92.3015 37.7046 92.4145 37.7046ZM92.2865 38.0361C92.088 38.0361 91.9203 37.9823 91.7834 37.8741C91.6464 37.7661 91.5781 37.6154 91.5781 37.4219V37.4145C91.5781 37.2034 91.6528 37.044 91.8023 36.9359C91.9516 36.8279 92.152 36.7739 92.4033 36.7739C92.5866 36.7739 92.765 36.8015 92.9383 36.8568V36.8078C92.9383 36.519 92.7738 36.3744 92.4446 36.3744C92.2639 36.3744 92.0741 36.4159 91.8756 36.4989L91.7514 36.1408C92.0051 36.0329 92.2563 35.9788 92.505 35.9788C92.8014 35.9788 93.0213 36.0529 93.1644 36.2011C93.3076 36.3443 93.3791 36.5491 93.3791 36.8154V37.9946H92.9345V37.746C92.7738 37.9395 92.5578 38.0361 92.2865 38.0361Z" fill="#2058BB"/>
<path id="Vector_30" d="M93.9482 35.244H94.408V37.9946H93.9482V35.244Z" fill="#2058BB"/>
<path id="Vector_31" d="M95.9337 37.6407C96.0921 37.6407 96.2277 37.5809 96.3407 37.4617C96.4537 37.3423 96.5102 37.1898 96.5102 37.0038V36.9963C96.5102 36.8104 96.4537 36.6579 96.3407 36.5385C96.2277 36.4193 96.0921 36.3595 95.9337 36.3595C95.773 36.3595 95.6374 36.4179 95.5269 36.5347C95.4162 36.6515 95.3611 36.8054 95.3611 36.9963V37.0038C95.3611 37.1922 95.4162 37.3455 95.5269 37.4635C95.6374 37.5817 95.773 37.6407 95.9337 37.6407ZM96.5029 38.5977V37.6633C96.327 37.9119 96.1009 38.0363 95.8245 38.0363C95.5759 38.0363 95.3597 37.9434 95.1764 37.7575C94.9931 37.5715 94.9014 37.3203 94.9014 37.0038V36.9963C94.9014 36.6798 94.9924 36.4287 95.1746 36.2427C95.3566 36.0568 95.5732 35.9639 95.8245 35.9639C96.1034 35.9639 96.3295 36.0807 96.5029 36.3143V36.0053H96.9587V38.5977H96.5029Z" fill="#2058BB"/>
<path id="Vector_32" d="M100.825 37.2221V37.2146C100.825 36.9786 100.644 36.8604 100.282 36.8604H99.5474V37.584H100.316C100.477 37.584 100.602 37.5531 100.691 37.4915C100.78 37.43 100.825 37.3403 100.825 37.2221ZM100.678 36.1105V36.1031C100.678 35.9975 100.638 35.9154 100.559 35.8563C100.48 35.7974 100.365 35.7676 100.214 35.7676H99.5474V36.4686H100.181C100.336 36.4686 100.458 36.4384 100.546 36.3781C100.634 36.3179 100.678 36.2288 100.678 36.1105ZM99.0916 37.9946V35.357H100.275C100.579 35.357 100.808 35.4349 100.964 35.5906C101.082 35.7088 101.141 35.8544 101.141 36.0276V36.0353C101.141 36.2966 101.016 36.4925 100.765 36.623C100.935 36.6833 101.065 36.7625 101.155 36.8604C101.244 36.9585 101.288 37.0929 101.288 37.2636V37.2713C101.288 37.5023 101.2 37.6806 101.025 37.8063C100.849 37.9319 100.611 37.9946 100.312 37.9946H99.0916Z" fill="#2058BB"/>
<path id="Vector_33" d="M102.46 37.7046C102.613 37.7046 102.74 37.665 102.841 37.5859C102.941 37.5068 102.991 37.4045 102.991 37.2788V37.1431C102.856 37.0904 102.705 37.064 102.539 37.064C102.391 37.064 102.276 37.0929 102.194 37.1506C102.113 37.2085 102.072 37.2901 102.072 37.3955V37.4031C102.072 37.4961 102.108 37.5696 102.181 37.6236C102.254 37.6776 102.347 37.7046 102.46 37.7046ZM102.332 38.0361C102.133 38.0361 101.966 37.9823 101.829 37.8741C101.692 37.7661 101.624 37.6154 101.624 37.4219V37.4145C101.624 37.2034 101.698 37.044 101.848 36.9359C101.997 36.8279 102.197 36.7739 102.449 36.7739C102.632 36.7739 102.811 36.8015 102.984 36.8568V36.8078C102.984 36.519 102.819 36.3744 102.49 36.3744C102.309 36.3744 102.12 36.4159 101.921 36.4989L101.797 36.1408C102.051 36.0329 102.302 35.9788 102.551 35.9788C102.847 35.9788 103.067 36.0529 103.21 36.2011C103.353 36.3443 103.425 36.5491 103.425 36.8154V37.9946H102.98V37.746C102.819 37.9395 102.603 38.0361 102.332 38.0361Z" fill="#2058BB"/>
<path id="Vector_34" d="M103.967 37.9946V36.0051H104.427V36.3103C104.593 36.0793 104.8 35.9638 105.049 35.9638C105.272 35.9638 105.446 36.0321 105.571 36.1691C105.695 36.306 105.757 36.4913 105.757 36.7249V37.9946H105.301V36.8643C105.301 36.7085 105.264 36.5886 105.19 36.5044C105.116 36.4203 105.011 36.3781 104.876 36.3781C104.74 36.3781 104.631 36.4221 104.55 36.51C104.468 36.598 104.427 36.7186 104.427 36.8719V37.9946H103.967Z" fill="#2058BB"/>
<path id="Vector_35" d="M106.303 37.9946V35.244H106.763V36.8869L107.588 36.0051H108.142L107.351 36.8153L108.169 37.9946H107.634L107.046 37.1319L106.763 37.4256V37.9946H106.303Z" fill="#2058BB"/>
<path id="Vector_36" d="M108.523 36.0051H108.983V37.9946H108.523V36.0051Z" fill="#2058BB"/>
</g>
</g>
</svg>
