<svg width="52" height="40" viewBox="0 0 52 40" fill="none" xmlns="http://www.w3.org/2000/svg">
<path d="M44.9851 24.022C44.9851 27.0989 42.3181 29.6044 39.0429 29.6044H6.71167V7.49453C6.71167 4.4176 9.37864 1.91211 12.6539 1.91211H44.9851V24.022Z" fill="white"/>
<path d="M34.4575 18.3516H36.9139C36.9841 18.3516 37.1479 18.3296 37.2181 18.3296C37.686 18.2417 38.0837 17.8461 38.0837 17.2966C38.0837 16.7692 37.686 16.3736 37.2181 16.2637C37.1479 16.2417 37.0075 16.2417 36.9139 16.2417H34.4575V18.3516Z" fill="url(#paint0_linear_1479_2949)"/>
<path d="M36.6332 3.78027C34.2938 3.78027 32.3754 5.56049 32.3754 7.78027V11.9341H38.3878C38.5282 11.9341 38.692 11.9341 38.8089 11.9561C40.1658 12.022 41.1718 12.6814 41.1718 13.8242C41.1718 14.7253 40.4933 15.4946 39.23 15.6484V15.6924C40.6103 15.7803 41.6631 16.5055 41.6631 17.6264C41.6631 18.8352 40.4933 19.6264 38.9493 19.6264H32.3521V27.7583H38.5984C40.9378 27.7583 42.8562 25.9781 42.8562 23.7583V3.78027H36.6332Z" fill="url(#paint1_linear_1479_2949)"/>
<path d="M37.7795 14.0881C37.7795 13.5607 37.3818 13.209 36.9139 13.1431C36.8672 13.1431 36.7502 13.1211 36.68 13.1211H34.4575V15.0552H36.68C36.7502 15.0552 36.8905 15.0552 36.9139 15.0332C37.3818 14.9672 37.7795 14.6156 37.7795 14.0881Z" fill="url(#paint2_linear_1479_2949)"/>
<path d="M13.0983 3.78027C10.7589 3.78027 8.84053 5.56049 8.84053 7.78027V17.6484C10.0337 18.1979 11.2736 18.5495 12.5135 18.5495C13.9873 18.5495 14.7827 17.7143 14.7827 16.5715V11.9121H18.4323V16.5495C18.4323 18.3517 17.2392 19.8242 13.1919 19.8242C10.7355 19.8242 8.81714 19.3187 8.81714 19.3187V27.7363H15.0635C17.4029 27.7363 19.3213 25.9561 19.3213 23.7363V3.78027H13.0983Z" fill="url(#paint3_linear_1479_2949)"/>
<path d="M24.8657 3.78027C22.5263 3.78027 20.6079 5.56049 20.6079 7.78027V13.011C21.6841 12.1539 23.5556 11.6044 26.5735 11.7363C28.1877 11.8023 29.9189 12.2198 29.9189 12.2198V13.9121C29.0533 13.4946 28.024 13.1209 26.6905 13.033C24.3978 12.8792 23.0175 13.9341 23.0175 15.7803C23.0175 17.6484 24.3978 18.7034 26.6905 18.5275C28.024 18.4396 29.0533 18.044 29.9189 17.6484V19.3407C29.9189 19.3407 28.2111 19.7583 26.5735 19.8242C23.5556 19.9561 21.6841 19.4066 20.6079 18.5495V27.7803H26.8542C29.1937 27.7803 31.112 26.0001 31.112 23.7803V3.78027H24.8657Z" fill="url(#paint4_linear_1479_2949)"/>
<path d="M2.64109 33.2529V36.1101C2.64109 36.5936 2.75806 36.8134 2.85164 36.9452C3.15577 37.3189 3.62366 37.4068 3.97457 37.4068C5.30806 37.4068 5.30806 36.4397 5.30806 36.1101V33.2969H5.9631V36.132C5.9631 36.3738 5.9631 36.9013 5.5654 37.3628C5.07411 37.9342 4.34888 38.0002 3.97457 38.0002C3.50668 38.0002 2.71127 37.8903 2.24338 37.2749C2.10301 37.0771 1.96265 36.8134 1.96265 36.1101V33.2969H2.64109V33.2529Z" fill="#0D0D19"/>
<path d="M7.03931 35.0113V34.6377H7.67096V35.1432C7.74114 35.0113 7.99848 34.5718 8.7705 34.5718C9.07463 34.5718 10.0104 34.6817 10.0104 35.6707V37.8465H9.35536V35.8245C9.35536 35.6047 9.33197 35.4289 9.16821 35.2751C9.00444 35.1212 8.7705 35.0553 8.55995 35.0553C8.09206 35.0553 7.67096 35.363 7.67096 36.0003V37.8465H7.03931V35.0113Z" fill="#0D0D19"/>
<path d="M11.0864 33.2529H11.8584V33.9123H11.0864V33.2529ZM11.1566 34.6375H11.7883V37.8244H11.1566V34.6375Z" fill="#0D0D19"/>
<path d="M15.9993 34.6377C15.9993 34.7696 15.976 35.0553 15.976 35.1652V39.0773H15.3209V37.4949C15.2741 37.5608 15.2039 37.6707 15.0402 37.7586C14.7594 37.9344 14.4319 37.9564 14.2682 37.9564C13.4494 37.9564 12.7241 37.4069 12.7241 36.2201C12.7241 35.0333 13.426 34.5938 14.1512 34.5938C14.853 34.5938 15.1571 34.9454 15.3209 35.1652L15.3443 34.6377H15.9993ZM14.3383 35.0333C13.426 35.0333 13.4026 35.9344 13.4026 36.1762C13.4026 36.396 13.426 36.8795 13.6833 37.1872C13.8237 37.385 14.1044 37.4949 14.4085 37.4949C15.2039 37.4949 15.3443 36.9234 15.3443 36.2861C15.3677 36.0443 15.3677 35.0333 14.3383 35.0333Z" fill="#0D0D19"/>
<path d="M17.824 34.6377V36.7036C17.824 37.0113 17.8942 37.4069 18.5492 37.4069C18.8767 37.4069 19.1575 37.297 19.3446 37.0553C19.485 36.8575 19.485 36.6157 19.485 36.4619V34.6597H20.14V37.2531C20.14 37.319 20.1634 37.6707 20.1634 37.8465H19.5084L19.485 37.297C19.368 37.5168 19.1341 37.8685 18.4089 37.8685C17.5667 37.8685 17.1689 37.4069 17.1689 36.7915V34.6377H17.824Z" fill="#0D0D19"/>
<path d="M21.8011 36.352C21.7777 37.0113 22.0818 37.4949 22.7837 37.4949C23.2048 37.4949 23.5323 37.2971 23.5791 36.8355H24.2107C24.1873 36.9894 24.1639 37.2531 23.93 37.4949C23.7896 37.6487 23.4387 37.9124 22.7603 37.9124C21.6841 37.9124 21.1694 37.2971 21.1694 36.2861C21.1694 35.6487 21.3098 35.1432 21.8479 34.7916C22.1754 34.5718 22.5731 34.5498 22.7837 34.5498C24.3043 34.5498 24.2809 35.8245 24.2575 36.33H21.8011V36.352ZM23.5791 35.9344C23.5791 35.6267 23.5323 34.9894 22.7369 34.9894C22.3158 34.9894 21.8245 35.2311 21.8011 35.9344H23.5791Z" fill="#0D0D19"/>
<path d="M25.3103 33.2529H25.942V37.8463H25.3103V33.2529Z" fill="#0D0D19"/>
<path d="M28.6324 37.8685L28.1412 39.0553H27.4861L28.0008 37.8245L26.5737 34.6377H27.299L28.3751 37.1652L29.4513 34.6377H30.1531L28.6324 37.8685Z" fill="#0D0D19"/>
<path d="M33.5453 36.0441L31.627 33.2529H32.4692L33.9196 35.5167L35.3935 33.2529H36.1421L34.2237 36.0661V37.8463H33.5453V36.0441Z" fill="#0D0D19"/>
<path d="M37.5222 34.5718C38.879 34.5718 39.1832 35.5828 39.1832 36.2421C39.1832 37.1872 38.6217 37.9564 37.452 37.9564C36.329 37.9564 35.7676 37.2311 35.7676 36.2861C35.791 35.4949 36.1887 34.5718 37.5222 34.5718ZM37.4754 37.4949C37.9667 37.4949 38.5047 37.1652 38.5047 36.1981C38.5047 35.4069 38.107 34.9894 37.5222 34.9894C37.1245 34.9894 36.4694 35.2311 36.4694 36.2421C36.446 36.9014 36.7501 37.4949 37.4754 37.4949Z" fill="#0D0D19"/>
<path d="M40.7976 34.6377V36.7036C40.7976 37.0113 40.8678 37.4069 41.5229 37.4069C41.8504 37.4069 42.1311 37.297 42.3183 37.0553C42.4586 36.8575 42.4586 36.6157 42.4586 36.4619V34.6597H43.1137V37.2531C43.1137 37.319 43.1371 37.6707 43.1371 37.8465H42.482L42.4586 37.297C42.3417 37.5168 42.1077 37.8685 41.3825 37.8685C40.5403 37.8685 40.1426 37.4069 40.1426 36.7915V34.6377H40.7976Z" fill="#0D0D19"/>
<path d="M44.4003 35.297C44.4003 35.0773 44.377 34.8575 44.377 34.6377H45.032L45.0554 35.2531C45.1724 34.8135 45.5935 34.6597 45.8742 34.6157C46.0614 34.5938 46.2017 34.5938 46.3187 34.5938V35.1872C46.2953 35.1652 46.2485 35.1652 46.2017 35.1652C46.1549 35.1652 46.0848 35.1652 46.0146 35.1652C45.2659 35.1652 45.0788 35.5828 45.0788 36.1322V37.8245H44.4237V35.297H44.4003Z" fill="#0D0D19"/>
<path d="M47.3948 36.9014C47.3948 37.1432 47.5352 37.4729 48.1434 37.4729C48.4008 37.4729 48.6113 37.4289 48.7517 37.2751C48.8219 37.1872 48.8686 37.0773 48.8686 36.9674C48.8686 36.6597 48.6347 36.5938 48.12 36.4839C47.4182 36.33 46.8099 36.1981 46.8099 35.5388C46.8099 34.9454 47.348 34.5718 48.1434 34.5718C48.5645 34.5718 49.1728 34.6817 49.3599 35.0773C49.4535 35.2531 49.4535 35.4069 49.4535 35.5388H48.7985C48.8219 35.0553 48.3774 35.0113 48.1434 35.0113C48.0498 35.0113 47.4416 35.0113 47.4416 35.4729C47.4416 35.7586 47.7457 35.8465 47.9329 35.8905C48.8686 36.1102 49.0792 36.1542 49.2897 36.33C49.4769 36.5058 49.5471 36.7256 49.5471 36.9234C49.5471 37.2751 49.3365 37.5828 49.0792 37.7366C48.7751 37.9124 48.4241 37.9564 48.0732 37.9564C47.3714 37.9564 46.7397 37.6927 46.7397 36.9234H47.3948V36.9014Z" fill="#0D0D19"/>
<defs>
<linearGradient id="paint0_linear_1479_2949" x1="32.3708" y1="17.2989" x2="42.885" y2="17.2989" gradientUnits="userSpaceOnUse">
<stop stop-color="#007940"/>
<stop offset="0.2285" stop-color="#00873F"/>
<stop offset="0.7433" stop-color="#40A737"/>
<stop offset="1" stop-color="#5CB531"/>
</linearGradient>
<linearGradient id="paint1_linear_1479_2949" x1="32.3712" y1="15.7593" x2="42.8849" y2="15.7593" gradientUnits="userSpaceOnUse">
<stop stop-color="#007940"/>
<stop offset="0.2285" stop-color="#00873F"/>
<stop offset="0.7433" stop-color="#40A737"/>
<stop offset="1" stop-color="#5CB531"/>
</linearGradient>
<linearGradient id="paint2_linear_1479_2949" x1="32.3708" y1="14.0848" x2="42.884" y2="14.0848" gradientUnits="userSpaceOnUse">
<stop stop-color="#007940"/>
<stop offset="0.2285" stop-color="#00873F"/>
<stop offset="0.7433" stop-color="#40A737"/>
<stop offset="1" stop-color="#5CB531"/>
</linearGradient>
<linearGradient id="paint3_linear_1479_2949" x1="8.83521" y1="15.7593" x2="19.5111" y2="15.7593" gradientUnits="userSpaceOnUse">
<stop stop-color="#1F286F"/>
<stop offset="0.4751" stop-color="#004E94"/>
<stop offset="0.8261" stop-color="#0066B1"/>
<stop offset="1" stop-color="#006FBC"/>
</linearGradient>
<linearGradient id="paint4_linear_1479_2949" x1="20.5471" y1="15.7593" x2="30.9155" y2="15.7593" gradientUnits="userSpaceOnUse">
<stop stop-color="#6C2C2F"/>
<stop offset="0.1735" stop-color="#882730"/>
<stop offset="0.5731" stop-color="#BE1833"/>
<stop offset="0.8585" stop-color="#DC0436"/>
<stop offset="1" stop-color="#E60039"/>
</linearGradient>
</defs>
</svg>
