<svg width="118" height="32" viewBox="0 0 118 32" fill="none" xmlns="http://www.w3.org/2000/svg">
<g clip-path="url(#clip0_1479_2945)">
<path d="M41.7409 29.4632H40.8974V19.601H41.7409V29.4632ZM48.171 19.601C48.9113 19.5897 49.6481 19.7059 50.3503 19.9448C50.965 20.1519 51.5302 20.4878 52.0097 20.931C52.4596 21.3649 52.8107 21.8939 53.0385 22.4808C53.5276 23.8 53.5276 25.2558 53.0385 26.575C52.807 27.1643 52.4511 27.6943 51.9959 28.1276C51.5165 28.5709 50.9512 28.9068 50.3365 29.1138C49.6351 29.3524 48.8993 29.4686 48.1599 29.4576H44.6365V19.5954L48.171 19.601ZM45.4828 20.4182V28.6461H48.171C48.8045 28.6609 49.4358 28.5656 50.0378 28.3643C50.5437 28.1892 51.0075 27.9069 51.3985 27.5359C51.7678 27.1734 52.0515 26.7302 52.2282 26.2397C52.6027 25.1449 52.6027 23.9532 52.2282 22.8584C52.0509 22.3674 51.7673 21.9234 51.3985 21.5594C51.0087 21.1868 50.5445 20.9042 50.0378 20.731C49.4355 20.5307 48.8044 20.4355 48.171 20.4492L45.4828 20.4182ZM63.7636 19.4883C64.1687 19.4872 64.5725 19.5345 64.9667 19.6292C65.3445 19.7197 65.7103 19.856 66.0563 20.035C66.3888 20.2062 66.6984 20.4202 66.9773 20.6718C67.2497 20.9181 67.4862 21.2028 67.6798 21.5171L66.9745 21.9961C66.8086 21.7375 66.6095 21.5024 66.3827 21.2973C66.1541 21.0909 65.9014 20.914 65.6304 20.7704C65.3499 20.6224 65.0527 20.5098 64.7454 20.4351C64.4247 20.3573 64.0961 20.3185 63.7664 20.3196C63.2166 20.3151 62.6711 20.4184 62.1596 20.6239C61.6775 20.814 61.2381 21.1015 60.868 21.4692C60.496 21.8493 60.2026 22.3016 60.0051 22.7992C59.5856 23.9052 59.5856 25.1308 60.0051 26.2369C60.203 26.7358 60.4974 27.189 60.8708 27.5697C61.2409 27.9374 61.6802 28.2249 62.1623 28.415C62.6738 28.6205 63.2194 28.7238 63.7692 28.7193C64.0968 28.7202 64.4235 28.6824 64.7427 28.6066C65.0491 28.5347 65.3455 28.424 65.6249 28.2769C65.897 28.1338 66.1506 27.9568 66.3799 27.75C66.608 27.544 66.8072 27.307 66.9718 27.0456L67.6632 27.5612C67.4624 27.8743 67.2215 28.1586 66.9469 28.4066C66.6691 28.6526 66.3626 28.8627 66.0342 29.0321C65.6927 29.2084 65.3315 29.3418 64.9584 29.4294C63.9069 29.6732 62.8079 29.5908 61.8028 29.1927C61.2155 28.9564 60.6805 28.6029 60.2292 28.153C59.7804 27.6994 59.4267 27.1578 59.1893 26.5609C58.687 25.251 58.687 23.7964 59.1893 22.4864C59.4262 21.8885 59.78 21.3459 60.2292 20.8916C60.6805 20.4416 61.2155 20.0881 61.8028 19.8518C62.4265 19.6037 63.0913 19.4803 63.7609 19.4883H63.7636ZM70.5477 23.9967C70.6715 23.7876 70.8243 23.5978 71.0013 23.4332C71.1668 23.277 71.353 23.1451 71.5544 23.0415C71.7568 22.9407 71.9704 22.865 72.1905 22.8161C72.4085 22.7674 72.6311 22.7428 72.8543 22.7428C73.2308 22.7389 73.6052 22.8019 73.9605 22.9288C74.2825 23.0443 74.578 23.2255 74.8289 23.4614C75.0721 23.6983 75.261 23.9869 75.3821 24.3067C75.5173 24.6604 75.5839 25.0374 75.5784 25.4169V29.4801H74.7902V25.6451C74.7944 25.3388 74.7477 25.0339 74.6519 24.7435C74.5669 24.4888 74.4271 24.2568 74.2426 24.0644C74.0574 23.8753 73.8336 23.7301 73.5872 23.6389C73.3034 23.5353 73.0036 23.4847 72.7022 23.4895C72.4101 23.4869 72.1202 23.5405 71.8476 23.6473C71.5895 23.7484 71.3543 23.9017 71.1562 24.0982C70.9581 24.2975 70.8011 24.5351 70.6943 24.797C70.5795 25.0791 70.5221 25.382 70.5256 25.6874V29.4632H69.7374V19.3192H70.5256L70.5477 23.9967ZM80.7446 22.7428C81.1594 22.7393 81.5702 22.8248 81.9504 22.9936C82.3142 23.1553 82.641 23.3923 82.9101 23.6896C83.188 24.0018 83.4049 24.3653 83.549 24.7604C83.7099 25.1964 83.7924 25.6584 83.7924 26.1242C83.7924 26.1862 83.7924 26.2435 83.7924 26.2961C83.7924 26.3486 83.7924 26.4012 83.7924 26.4538H78.3219C78.342 26.8097 78.4274 27.1585 78.5736 27.4823C78.707 27.7714 78.8949 28.0309 79.1267 28.2459C79.3526 28.4552 79.6166 28.617 79.9039 28.7221C80.2046 28.8322 80.5219 28.8875 80.8414 28.8856C81.2621 28.8927 81.6793 28.8062 82.0638 28.632C82.4263 28.4616 82.7567 28.228 83.0401 27.9416L83.4632 28.5052C83.2711 28.7041 83.0588 28.8817 82.8299 29.0349C82.6242 29.1716 82.4044 29.285 82.1745 29.3731C81.9546 29.457 81.7265 29.5166 81.4941 29.5506C81.2622 29.583 81.0284 29.599 80.7944 29.5985C80.3446 29.6031 79.8983 29.5179 79.4807 29.3477C79.0912 29.1892 78.7381 28.9503 78.4436 28.6461C78.1454 28.3333 77.9138 27.961 77.7633 27.5528C77.5926 27.1037 77.5081 26.6254 77.5144 26.1439C77.5096 25.6728 77.5932 25.2052 77.7605 24.766C77.9137 24.3623 78.144 23.9935 78.4381 23.6812C78.7283 23.3768 79.0765 23.1361 79.4614 22.9739C79.8676 22.8049 80.3032 22.7216 80.7419 22.7288L80.7446 22.7428ZM80.7446 23.4557C80.4332 23.4515 80.124 23.5099 79.8347 23.6276C79.5664 23.739 79.3213 23.9016 79.1129 24.1066C78.9014 24.3166 78.7289 24.5638 78.604 24.8364C78.4697 25.1299 78.3846 25.4442 78.3523 25.7663H82.9903C82.9667 25.4416 82.8891 25.1234 82.7608 24.8252C82.6447 24.553 82.4796 24.3055 82.274 24.0954C82.0706 23.8899 81.8293 23.7275 81.5639 23.6178C81.2985 23.508 81.0144 23.4529 80.728 23.4557H80.7446ZM88.6184 22.7428C89.0793 22.7387 89.5363 22.8287 89.9625 23.0077C90.366 23.1776 90.7263 23.4387 91.0162 23.7713L90.5045 24.3123C90.2585 24.0594 89.9688 23.855 89.65 23.7093C89.3175 23.563 88.9584 23.49 88.5963 23.4952C88.2553 23.4919 87.9174 23.56 87.6034 23.6952C87.3026 23.8266 87.0307 24.0182 86.8041 24.2588C86.5746 24.502 86.395 24.7894 86.2759 25.1041C86.0221 25.7926 86.0221 26.5515 86.2759 27.24C86.3913 27.5546 86.5686 27.8418 86.7969 28.0841C87.0252 28.3263 87.2996 28.5186 87.6034 28.6489C87.9174 28.7842 88.2553 28.8522 88.5963 28.849C88.9639 28.8529 89.328 28.776 89.6638 28.6235C89.9827 28.4774 90.2739 28.2752 90.5239 28.0262L91.0162 28.5756C90.7231 28.9072 90.3613 29.168 89.9569 29.3392C89.5319 29.5185 89.0757 29.6086 88.6156 29.6041C88.1551 29.6099 87.6981 29.5217 87.2715 29.3449C86.8762 29.1812 86.5178 28.9371 86.2183 28.6275C85.9187 28.3179 85.6842 27.9493 85.5292 27.5443C85.2016 26.6696 85.2016 25.7027 85.5292 24.828C85.6836 24.4223 85.9179 24.053 86.2175 23.7429C86.5171 23.4328 86.8758 23.1884 87.2715 23.0246C87.6921 22.8367 88.1453 22.7361 88.6046 22.7288L88.6184 22.7428ZM93.6657 25.6451H94.7221L97.4601 22.8499H98.4557L95.3582 25.9776L98.511 29.4773H97.5099L94.7221 26.3778H93.6657V29.4773H92.8636V19.3333H93.6518L93.6657 25.6451ZM51.2104 16.0957V11.8691C51.2104 10.2742 50.212 9.20063 48.6052 9.18654C48.1476 9.15639 47.6904 9.25186 47.2813 9.46298C46.8722 9.67411 46.5262 9.99317 46.2793 10.3869C46.0543 10.0049 45.7324 9.6917 45.3474 9.48045C44.9624 9.26919 44.5286 9.16766 44.0917 9.18654C43.7112 9.16782 43.3326 9.2505 42.9931 9.42641C42.6536 9.60233 42.365 9.8654 42.1557 10.1897V9.34433H40.7148V16.0901H42.1696V12.3565C42.1696 11.1843 42.8057 10.5644 43.7902 10.5644C44.7748 10.5644 45.2311 11.1984 45.2311 12.3424V16.0957H46.6858V12.3565C46.6858 11.1843 47.3496 10.5644 48.3065 10.5644C49.2634 10.5644 49.7612 11.1984 49.7612 12.3424V16.0957H51.2104ZM72.7353 9.34996H70.3818V7.30427H68.9409V9.34996H67.5968V10.6912H68.9409V13.7682C68.9409 15.3349 69.5355 16.2676 71.2391 16.2676C71.8754 16.2697 72.4994 16.089 73.0396 15.7463L72.6247 14.4896C72.2381 14.7242 71.7995 14.8551 71.3498 14.87C70.6307 14.87 70.3929 14.4191 70.3929 13.7429V10.6912H72.7464L72.7353 9.34996ZM85.0231 9.1809C84.6717 9.17046 84.3242 9.25684 84.017 9.43092C83.7099 9.60499 83.4545 9.86032 83.2779 10.1699V9.34996H81.8509V16.0957H83.2918V12.3143C83.2918 11.1872 83.7619 10.5785 84.705 10.5785C85.0135 10.574 85.3199 10.6314 85.6066 10.7476L86.0491 9.36406C85.7198 9.24406 85.3728 9.18212 85.0231 9.1809ZM66.4518 9.88816C65.636 9.39436 64.6981 9.14984 63.7498 9.18372C62.0738 9.18372 60.9842 10.0009 60.9842 11.3421C60.9842 12.4439 61.7862 13.1201 63.2686 13.3315L63.9462 13.4301C64.7344 13.5428 65.1105 13.7541 65.1105 14.1345C65.1105 14.6558 64.585 14.9517 63.6005 14.9517C62.8061 14.9774 62.0266 14.7292 61.388 14.2473L60.7104 15.3913C61.5495 15.989 62.5549 16.2962 63.5783 16.2676C65.4894 16.2676 66.5984 15.349 66.5984 14.0669C66.5984 12.8806 65.7245 12.2607 64.2863 12.0494L63.6088 11.9508C62.9865 11.8662 62.4859 11.7394 62.4859 11.2886C62.4859 10.7955 62.9561 10.4968 63.747 10.4968C64.4717 10.5077 65.1818 10.7065 65.8102 11.0744L66.4518 9.88816ZM105.043 9.18372C104.692 9.17328 104.345 9.25966 104.037 9.43374C103.73 9.60781 103.475 9.86314 103.298 10.1728V9.34996H101.871V16.0957H103.312V12.3143C103.312 11.1872 103.782 10.5785 104.725 10.5785C105.034 10.574 105.34 10.6314 105.627 10.7476L106.07 9.36406C105.74 9.24406 105.393 9.18212 105.043 9.1809V9.18372ZM86.4805 12.7257C86.4805 14.7714 87.88 16.2676 90.0123 16.2676C90.8769 16.3112 91.7263 16.0237 92.3935 15.4617L91.7021 14.2754C91.1999 14.6612 90.5886 14.8708 89.9597 14.8728C88.8092 14.8728 87.9657 14.0106 87.9657 12.7144C87.9657 11.4182 88.812 10.5701 89.9597 10.556C90.5858 10.5629 91.1929 10.7753 91.691 11.1618L92.3824 9.97551C91.7152 9.4135 90.8658 9.12605 90.0012 9.16963C87.8689 9.16963 86.4695 10.6659 86.4695 12.7116L86.4805 12.7257ZM99.9713 12.7257V9.34433H98.5332V10.1643C98.2875 9.84132 97.9695 9.58298 97.6057 9.41091C97.242 9.23883 96.8431 9.15804 96.4424 9.17526C94.5866 9.17526 93.1236 10.6574 93.1236 12.7172C93.1236 14.777 94.5783 16.2591 96.4424 16.2591C96.8431 16.2764 97.242 16.1956 97.6057 16.0235C97.9695 15.8514 98.2875 15.5931 98.5332 15.2701V16.0873H99.9741L99.9713 12.7257ZM94.6115 12.7257C94.6115 11.5394 95.3721 10.5672 96.6194 10.5672C97.8114 10.5672 98.6134 11.4999 98.6134 12.7257C98.6134 13.9514 97.8114 14.8841 96.6194 14.8841C95.3721 14.8841 94.6115 13.9091 94.6115 12.7257ZM77.2378 9.1809C75.3019 9.1809 73.9412 10.6208 73.9412 12.7228C73.9412 14.8672 75.3544 16.2648 77.3346 16.2648C78.3233 16.3001 79.2902 15.963 80.0505 15.318L79.3452 14.2303C78.7952 14.6787 78.1137 14.9267 77.4093 14.9348C76.48 14.9348 75.6365 14.498 75.4291 13.2836H80.3464C80.3602 13.1004 80.374 12.9173 80.374 12.72C80.374 10.618 79.0852 9.17808 77.2295 9.17808L77.2378 9.1809ZM77.2101 10.494C78.1394 10.494 78.734 11.0857 78.8861 12.1311H75.4374C75.5895 11.1562 76.1703 10.494 77.1963 10.494H77.2101ZM113.351 12.7228V6.64209H111.911V10.1699C111.665 9.84695 111.347 9.58862 110.983 9.41655C110.619 9.24448 110.22 9.16367 109.82 9.1809C107.964 9.1809 106.501 10.663 106.501 12.7228C106.501 14.7826 107.956 16.2648 109.82 16.2648C110.22 16.282 110.619 16.2012 110.983 16.0291C111.347 15.8571 111.665 15.5987 111.911 15.2757V16.0929H113.351V12.7228ZM115.036 15.473C115.093 15.4728 115.149 15.4843 115.202 15.5068C115.252 15.5288 115.298 15.5603 115.337 15.5998C115.376 15.6385 115.407 15.6844 115.428 15.735C115.451 15.7875 115.462 15.8441 115.462 15.9013C115.462 15.9585 115.451 16.015 115.428 16.0675C115.407 16.1181 115.376 16.164 115.337 16.2028C115.298 16.2421 115.252 16.2736 115.202 16.2958C115.149 16.3185 115.093 16.3301 115.036 16.3296C114.951 16.3307 114.869 16.3064 114.798 16.2598C114.727 16.2131 114.671 16.1463 114.637 16.0675C114.615 16.015 114.604 15.9584 114.604 15.9013C114.604 15.8441 114.615 15.7876 114.637 15.735C114.681 15.6316 114.762 15.5496 114.864 15.5068C114.914 15.4856 114.968 15.4741 115.022 15.473H115.036ZM115.036 16.2338C115.079 16.2345 115.123 16.2258 115.163 16.2084C115.201 16.1916 115.236 16.1677 115.265 16.138C115.327 16.0751 115.361 15.99 115.361 15.9013C115.361 15.8126 115.327 15.7274 115.265 15.6646C115.236 15.6347 115.201 15.6108 115.163 15.5941C115.123 15.5769 115.079 15.5683 115.036 15.5688C114.991 15.5682 114.947 15.5768 114.906 15.5941C114.856 15.6156 114.813 15.649 114.779 15.6915C114.745 15.7339 114.722 15.7841 114.712 15.8378C114.702 15.8914 114.704 15.9467 114.72 15.9991C114.735 16.0514 114.763 16.0991 114.801 16.138C114.831 16.1681 114.867 16.192 114.906 16.2084C114.942 16.225 114.982 16.2346 115.022 16.2366L115.036 16.2338ZM115.061 15.6984C115.102 15.6954 115.143 15.7074 115.177 15.7322C115.19 15.7433 115.201 15.7575 115.208 15.7736C115.216 15.7898 115.219 15.8075 115.218 15.8252C115.219 15.8405 115.216 15.8556 115.21 15.8697C115.205 15.8838 115.196 15.8965 115.185 15.9069C115.16 15.9299 115.128 15.9438 115.094 15.9464L115.221 16.0957H115.121L115.003 15.9464H114.964V16.0957H114.881V15.6984H115.061ZM114.964 15.7717V15.8787H115.061C115.078 15.8838 115.096 15.8838 115.113 15.8787C115.119 15.8744 115.124 15.8685 115.128 15.8616C115.131 15.8547 115.133 15.847 115.133 15.8393C115.133 15.8316 115.131 15.8239 115.128 15.817C115.124 15.8101 115.119 15.8042 115.113 15.7998C115.096 15.7948 115.078 15.7948 115.061 15.7998L114.964 15.7717ZM107.992 12.72C107.992 11.5337 108.752 10.5616 109.999 10.5616C111.191 10.5616 111.994 11.4943 111.994 12.72C111.994 13.9457 111.191 14.8784 109.999 14.8784C108.752 14.8784 107.992 13.9035 107.992 12.72ZM59.3441 12.72V9.33869H57.8784V10.1587C57.6327 9.83568 57.3147 9.57735 56.9509 9.40527C56.5872 9.2332 56.1882 9.1524 55.7875 9.16963C53.9318 9.16963 52.4688 10.6518 52.4688 12.7116C52.4688 14.7714 53.9235 16.2535 55.7875 16.2535C56.1882 16.2707 56.5872 16.1899 56.9509 16.0179C57.3147 15.8458 57.6327 15.5875 57.8784 15.2645V16.0816H59.3193L59.3441 12.72ZM53.9844 12.72C53.9844 11.5337 54.7449 10.5616 55.9922 10.5616C57.1842 10.5616 57.9862 11.4943 57.9862 12.72C57.9862 13.9457 57.1842 14.8784 55.9922 14.8784C54.7283 14.8728 53.9678 13.9091 53.9678 12.7228L53.9844 12.72ZM99.5122 29.1307H99.3878V29.4632H99.3269V29.1307H99.2025V29.0716H99.5122V29.1307ZM99.9879 29.4632H99.916V29.142L99.8026 29.4238H99.7362L99.6228 29.142V29.4604H99.562V29.0687H99.656L99.7667 29.3505L99.8773 29.0687H99.9713L99.9879 29.4632Z" fill="black"/>
<path d="M22.3289 4.70361H13.6172V20.655H22.3289V4.70361Z" fill="#FF5F00"/>
<path d="M14.1813 12.6811C14.1801 11.1452 14.5219 9.62904 15.1807 8.24749C15.8395 6.86595 16.7982 5.6552 17.9841 4.70686C16.5153 3.53078 14.7514 2.79945 12.8939 2.59644C11.0365 2.39344 9.16045 2.72695 7.48024 3.55887C5.80004 4.39079 4.38345 5.68755 3.39237 7.30093C2.4013 8.91432 1.87573 10.7792 1.87573 12.6826C1.87573 14.5859 2.4013 16.4508 3.39237 18.0642C4.38345 19.6776 5.80004 20.9743 7.48024 21.8062C9.16045 22.6382 11.0365 22.9717 12.8939 22.7687C14.7514 22.5657 16.5153 21.8343 17.9841 20.6583C16.7978 19.7096 15.839 18.4984 15.1801 17.1164C14.5213 15.7343 14.1797 14.2176 14.1813 12.6811Z" fill="#EB001B"/>
<path d="M33.1315 18.9643V18.6374H33.2643V18.5698H32.9324V18.6374H33.0624V18.9643H33.1315ZM33.7704 18.9643V18.5698H33.6708L33.5546 18.8516L33.4385 18.5698H33.3362V18.9643H33.4081V18.6684L33.5159 18.9249H33.5906L33.6985 18.6684V18.9671L33.7704 18.9643Z" fill="#F79E1B"/>
<path d="M34.0939 12.6807C34.0939 14.5842 33.5682 16.4493 32.577 18.0627C31.5857 19.6761 30.1689 20.9729 28.4885 21.8047C26.8081 22.6365 24.9319 22.9698 23.0743 22.7665C21.2168 22.5632 19.4528 21.8315 17.9841 20.655C19.1696 19.7059 20.1279 18.4948 20.7869 17.1132C21.4459 15.7315 21.7883 14.2155 21.7883 12.6793C21.7883 11.1432 21.4459 9.62715 20.7869 8.24553C20.1279 6.86391 19.1696 5.65282 17.9841 4.70364C19.453 3.52705 21.2172 2.79532 23.075 2.59213C24.9328 2.38894 26.8092 2.72249 28.4897 3.55463C30.1703 4.38677 31.587 5.68393 32.5781 7.29778C33.5691 8.91163 34.0944 10.7771 34.0939 12.6807Z" fill="#F79E1B"/>
</g>
<defs>
<clipPath id="clip0_1479_2945">
<rect width="117" height="31" fill="white" transform="translate(0.0673828 0.5)"/>
</clipPath>
</defs>
</svg>
