<svg width="24" height="24" viewBox="0 0 24 24" fill="none" xmlns="http://www.w3.org/2000/svg">
<path d="M5.84328 4.56593C9.24369 1.16552 14.7568 1.16552 18.1573 4.56593C21.5577 7.96634 21.5577 13.4795 18.1573 16.8799L16.9703 18.0538C16.0954 18.9125 14.9603 20.0164 13.5644 21.366C12.6922 22.2093 11.3084 22.2092 10.4362 21.3657L6.94515 17.9699C6.50638 17.539 6.13912 17.1757 5.84328 16.8799C2.44287 13.4795 2.44287 7.96634 5.84328 4.56593ZM17.0966 5.62659C14.282 2.81197 9.71856 2.81197 6.90394 5.62659C4.08931 8.44122 4.08931 13.0046 6.90394 15.8192L8.39101 17.2867C9.20992 18.0882 10.2394 19.0886 11.4791 20.2875C11.7698 20.5687 12.231 20.5687 12.5218 20.2876L15.9167 16.9861C16.3856 16.5259 16.779 16.1369 17.0966 15.8192C19.9112 13.0046 19.9112 8.44122 17.0966 5.62659ZM12.0003 7.99659C13.658 7.99659 15.0018 9.34043 15.0018 10.9981C15.0018 12.6558 13.658 13.9997 12.0003 13.9997C10.3426 13.9997 8.99871 12.6558 8.99871 10.9981C8.99871 9.34043 10.3426 7.99659 12.0003 7.99659ZM12.0003 9.49659C11.171 9.49659 10.4987 10.1689 10.4987 10.9981C10.4987 11.8274 11.171 12.4997 12.0003 12.4997C12.8295 12.4997 13.5018 11.8274 13.5018 10.9981C13.5018 10.1689 12.8295 9.49659 12.0003 9.49659Z" fill="#323232"/>
</svg>
