<svg width="20" height="16" viewBox="0 0 20 16" fill="none" xmlns="http://www.w3.org/2000/svg">
<path d="M19.2475 0.5C18.8678 0.5 18.5541 0.782268 18.5045 1.14836L18.4976 1.25014L18.5 14.2542C18.5001 14.6684 18.8359 15.0041 19.2501 15.0041C19.6298 15.0041 19.9436 14.7218 19.9932 14.3557L20 14.2539L19.9976 1.24986C19.9976 0.83565 19.6617 0.5 19.2475 0.5ZM6.3529 2.30373L6.28028 2.21961C6.01398 1.95338 5.59731 1.92921 5.30373 2.1471L5.21962 2.21972L0.223001 7.21737C-0.0430889 7.48352 -0.0673923 7.8999 0.150169 8.19349L0.222694 8.27761L5.21931 13.2811C5.512 13.5742 5.98687 13.5745 6.27997 13.2818C6.54642 13.0157 6.57091 12.5991 6.35325 12.3053L6.28069 12.2211L2.57 8.504L16.247 8.50495C16.6267 8.50495 16.9405 8.22279 16.9902 7.85672L16.997 7.75495C16.997 7.37525 16.7149 7.06146 16.3488 7.01179L16.247 7.00495L2.557 7.004L6.28039 3.28028C6.54662 3.01398 6.57079 2.59732 6.3529 2.30373L6.28028 2.21961L6.3529 2.30373Z" fill="#323232"/>
</svg>
