<svg width="174" height="32" viewBox="0 0 174 32" fill="none" xmlns="http://www.w3.org/2000/svg">
<g clip-path="url(#clip0_12338_39750)">
<path d="M7.96289 2.43721C7.96289 1.15141 9.00644 0.117188 10.2829 0.117188C11.5687 0.117188 12.603 1.16073 12.603 2.43721V14.6522C12.603 15.938 11.5687 16.9723 10.2829 16.9723C8.99712 16.9723 7.96289 15.9287 7.96289 14.6522V2.43721Z" fill="#FF003C"/>
<path d="M19.5553 13.6463C18.1763 12.845 17.2539 11.3449 17.2539 9.63984C17.2539 7.88818 18.2229 6.36945 19.6485 5.57748L24.801 2.60524C25.1364 2.41889 25.5184 2.31641 25.9284 2.31641C27.2142 2.31641 28.2484 3.35995 28.2484 4.63642C28.2484 5.49362 27.7826 6.24832 27.0838 6.64897L22.9934 9.00626C22.7698 9.12738 22.6207 9.36963 22.6207 9.63984C22.6207 9.91004 22.7605 10.143 22.9748 10.2641L27.0651 12.6307C27.7639 13.0313 28.2391 13.7861 28.2391 14.6526C28.2391 15.9384 27.1956 16.9726 25.9191 16.9726C25.4905 16.9726 25.0992 16.8608 24.7544 16.6651L19.5553 13.6463Z" fill="#FF003C"/>
<path d="M33.9793 21.5632C30.3455 27.2002 24.2147 30.9085 17.2546 30.9085C10.3318 30.9085 4.21954 27.2375 0.58575 21.6471C-0.00124696 20.7433 0.250322 19.5227 1.16343 18.9357C2.03926 18.3674 3.20394 18.591 3.81889 19.4295C6.84705 23.5758 11.7387 26.2685 17.2639 26.2685C22.7891 26.2685 27.6901 23.5664 30.7182 19.4202C31.3052 18.6282 32.414 18.3767 33.2898 18.8891C34.2029 19.4295 34.5197 20.6315 33.9793 21.5632Z" fill="#FF003C"/>
<path d="M64.9157 11.1289C61.3285 11.1289 58.4121 14.0825 58.4121 17.7163C58.4121 21.3593 61.3285 24.3223 64.9157 24.3223C68.5215 24.3223 71.4472 21.3593 71.4472 17.7163C71.4472 14.0825 68.5215 11.1289 64.9157 11.1289ZM67.9345 17.7069C67.9345 19.5984 66.6487 21.0332 64.9436 21.0332C63.2106 21.0332 61.8968 19.6077 61.8968 17.7069C61.8968 15.8248 63.2013 14.4086 64.9436 14.4086C66.6487 14.4086 67.9345 15.8248 67.9345 17.7069Z" fill="#323232"/>
<path d="M80.8525 11.1289C79.6226 11.1289 78.5417 11.5109 77.7498 12.2377C77.6939 12.2843 77.6286 12.3122 77.5634 12.2936C77.5261 12.2843 77.4609 12.2656 77.4143 12.1911C77.1162 11.6786 76.5664 11.3805 75.8863 11.3805C74.8893 11.3805 74.1719 12.1165 74.1719 13.1228V22.319C74.1719 22.8315 74.3582 23.288 74.6843 23.6048C75.0011 23.903 75.4297 24.0614 75.9142 24.0614C75.9515 24.0614 75.9888 24.0614 76.026 24.0614C76.9391 24.0148 77.6566 23.2508 77.6566 22.319V16.8963C77.6566 15.359 78.5231 14.4086 79.9207 14.4086C81.3183 14.4086 82.1848 15.359 82.1848 16.8963V22.319C82.1848 23.3253 82.893 24.0427 83.9086 24.0614C84.3744 24.0707 84.8217 23.8937 85.1571 23.5676C85.5018 23.2321 85.6975 22.7663 85.6975 22.2818V16.4398C85.6882 13.216 83.7874 11.1289 80.8525 11.1289Z" fill="#323232"/>
<path d="M96.175 20.6517C95.8675 20.6517 95.56 20.7449 95.2619 20.8381C94.9637 20.9312 94.6469 21.0337 94.3208 21.0337C93.855 21.0337 93.4263 20.9033 93.4263 19.9902V14.7166C93.4263 14.5954 93.5195 14.5023 93.6406 14.5023H95.4575C96.3613 14.5023 96.9949 13.8594 96.9949 12.937C96.9949 12.0145 96.3613 11.3716 95.4575 11.3716H93.5941C93.4729 11.3716 93.3798 11.2785 93.3798 11.1573V10.0579C93.3798 9.57339 93.1841 9.09821 92.8393 8.76279C92.5039 8.42736 92.066 8.24102 91.6001 8.25033C90.5939 8.25965 89.8951 8.9864 89.8951 10.0206V11.1573C89.8951 11.2785 89.8019 11.3716 89.6807 11.3716H88.954C88.0316 11.3716 87.3887 12.0052 87.3887 12.909C87.3887 13.8501 88.0316 14.5023 88.954 14.5023H89.6528C89.7739 14.5023 89.8671 14.5954 89.8671 14.7166V19.6361C89.8671 22.6084 91.4324 24.3227 94.1717 24.3227C96.2123 24.3227 97.6378 23.3817 97.6378 22.0214C97.6378 21.3598 97.1813 20.6517 96.175 20.6517Z" fill="#323232"/>
<path d="M110.217 11.382C109.462 11.3447 108.857 11.6708 108.54 12.2578C108.503 12.323 108.437 12.351 108.409 12.351C108.344 12.3603 108.27 12.3417 108.214 12.2951C107.319 11.5124 106.192 11.1211 104.841 11.1211C101.403 11.1211 98.8125 13.9536 98.8125 17.7085C98.8125 21.4727 101.403 24.3144 104.841 24.3144C106.155 24.3144 107.273 23.9045 108.176 23.1125C108.232 23.0659 108.316 23.038 108.391 23.0566C108.428 23.0659 108.493 23.0846 108.531 23.1591C108.819 23.7181 109.397 24.0629 110.087 24.0629C110.552 24.0722 110.99 23.8858 111.326 23.5597C111.671 23.2243 111.857 22.7678 111.857 22.2926V13.1243C111.857 12.1926 111.139 11.4286 110.217 11.382ZM108.344 17.7085C108.344 19.5999 107.058 21.0347 105.353 21.0347C103.62 21.0347 102.307 19.6092 102.307 17.7085C102.307 15.8263 103.611 14.4101 105.353 14.4101C107.058 14.4101 108.344 15.8263 108.344 17.7085Z" fill="#323232"/>
<path d="M137.48 20.6517C137.172 20.6517 136.865 20.7449 136.567 20.8381C136.268 20.9312 135.952 21.0337 135.626 21.0337C135.16 21.0337 134.731 20.9033 134.731 19.9902V14.7166C134.731 14.5954 134.824 14.5023 134.945 14.5023H136.762C137.666 14.5023 138.3 13.8594 138.3 12.937C138.3 12.0145 137.666 11.3716 136.762 11.3716H134.899C134.778 11.3716 134.684 11.2785 134.684 11.1573V10.0579C134.684 9.57339 134.489 9.09821 134.144 8.76279C133.809 8.42736 133.371 8.24102 132.905 8.25033C131.899 8.25965 131.2 8.9864 131.2 10.0206V11.1667C131.2 11.2878 131.107 11.381 130.985 11.381H130.259C129.336 11.381 128.693 12.0145 128.693 12.9183C128.693 13.8594 129.336 14.5116 130.259 14.5116H130.957C131.079 14.5116 131.172 14.6048 131.172 14.7259V19.6454C131.172 22.6177 132.737 24.3321 135.476 24.3321C137.517 24.3321 138.943 23.391 138.943 22.0307C138.943 21.3598 138.486 20.6517 137.48 20.6517Z" fill="#323232"/>
<path d="M117.089 6.70312C116.092 6.70312 115.375 7.43919 115.375 8.44547V22.319C115.375 23.3439 116.092 24.0613 117.117 24.0613C118.142 24.0613 118.86 23.3439 118.86 22.319V8.44547C118.86 7.42056 118.133 6.70312 117.089 6.70312Z" fill="#323232"/>
<path d="M126.435 21.2286L123.938 17.9862C123.817 17.8278 123.817 17.6042 123.938 17.4365L126.435 14.194C127.059 13.3834 126.929 12.3678 126.1 11.7343C125.308 11.1286 124.292 11.2684 123.677 12.0697L121.525 14.8649L120.845 15.7407C119.95 16.9054 119.95 18.5266 120.845 19.6913L121.525 20.5671L123.677 23.3623C124.301 24.1729 125.308 24.3033 126.118 23.6791C126.938 23.0455 127.059 22.0392 126.435 21.2286Z" fill="#323232"/>
<path d="M46.9644 6.70312C45.9674 6.70312 45.25 7.43919 45.25 8.44547V22.319C45.25 23.3439 45.9674 24.0613 46.9924 24.0613C48.0173 24.0613 48.7347 23.3439 48.7347 22.319V8.44547C48.7347 7.42056 48.008 6.70312 46.9644 6.70312Z" fill="#323232"/>
<path d="M56.2984 21.2286L53.8013 17.9862C53.6802 17.8278 53.6802 17.6042 53.8013 17.4365L56.2984 14.194C56.9227 13.3834 56.7922 12.3678 55.963 11.7343C55.171 11.1286 54.1554 11.2684 53.5405 12.0697L51.3881 14.8649L50.708 15.7407C49.8135 16.9054 49.8135 18.5266 50.708 19.6913L51.3881 20.5671L53.5405 23.3623C54.1647 24.1729 55.171 24.3033 55.9816 23.6791C56.8015 23.0455 56.932 22.0392 56.2984 21.2286Z" fill="#323232"/>
<path fill-rule="evenodd" clip-rule="evenodd" d="M169.864 6.93594H152.798C151.914 6.93594 151.198 7.65228 151.198 8.53594V23.4693C151.198 24.3529 151.914 25.0693 152.798 25.0693H169.864C170.748 25.0693 171.464 24.3529 171.464 23.4693V8.53594C171.464 7.65228 170.748 6.93594 169.864 6.93594ZM152.798 5.33594C151.03 5.33594 149.598 6.76863 149.598 8.53594V23.4693C149.598 25.2366 151.03 26.6693 152.798 26.6693H169.864C171.632 26.6693 173.064 25.2366 173.064 23.4693V8.53594C173.064 6.76863 171.632 5.33594 169.864 5.33594H152.798ZM154.291 11.2924C154.291 10.7309 154.751 10.3164 155.354 10.3164C155.958 10.3164 156.403 10.7309 156.403 11.2924V20.7182C156.403 21.2797 155.958 21.6942 155.354 21.6942C154.751 21.6942 154.291 21.2797 154.291 20.7182V11.2924ZM159.475 10.3164C158.929 10.3164 158.514 10.7504 158.514 11.3199V20.6907C158.514 21.2602 158.929 21.6942 159.475 21.6942H162.578C166.006 21.6942 168.37 19.1989 168.37 15.9985V15.9714C168.37 12.771 166.006 10.3164 162.578 10.3164H159.475ZM160.423 19.877V12.1472H162.565C164.851 12.1472 166.344 13.7881 166.344 16.0121V16.0392C166.344 18.2632 164.851 19.877 162.565 19.877H160.423Z" fill="#323232"/>
</g>
<defs>
<clipPath id="clip0_12338_39750">
<rect width="174" height="32" fill="white"/>
</clipPath>
</defs>
</svg>
