<svg width="32" height="32" viewBox="0 0 32 32" fill="none" xmlns="http://www.w3.org/2000/svg">
<path d="M0 8C0 3.58172 3.58172 0 8 0H24C28.4183 0 32 3.58172 32 8V24C32 28.4183 28.4183 32 24 32H8C3.58172 32 0 28.4183 0 24V8Z" fill="#0099CC"/>
<path d="M16 8C20.4183 8 24 11.5817 24 16C24 20.4183 20.4183 24 16 24C11.5817 24 8 20.4183 8 16C8 11.5817 11.5817 8 16 8ZM16 19.5C15.5858 19.5 15.25 19.8358 15.25 20.25C15.25 20.6642 15.5858 21 16 21C16.4142 21 16.75 20.6642 16.75 20.25C16.75 19.8358 16.4142 19.5 16 19.5ZM16 11.5C14.6193 11.5 13.5 12.6193 13.5 14C13.5 14.2761 13.7239 14.5 14 14.5C14.2761 14.5 14.5 14.2761 14.5 14C14.5 13.1716 15.1716 12.5 16 12.5C16.8284 12.5 17.5 13.1716 17.5 14C17.5 14.3693 17.366 14.7158 17.132 14.9845L17.0256 15.0947L16.9076 15.1944L16.6609 15.3787C16.532 15.4799 16.4165 15.5832 16.3054 15.7016C15.7931 16.2475 15.5 16.988 15.5 18C15.5 18.2761 15.7239 18.5 16 18.5C16.2761 18.5 16.5 18.2761 16.5 18C16.5 17.2422 16.6963 16.7464 17.0346 16.3859L17.11 16.3099L17.1906 16.2372L17.2782 16.1655L17.4967 16.0024L17.6513 15.8771C18.1848 15.4077 18.5 14.7296 18.5 14C18.5 12.6193 17.3807 11.5 16 11.5Z" fill="white"/>
</svg>
