<svg width="18" height="20" viewBox="0 0 18 20" fill="none" xmlns="http://www.w3.org/2000/svg">
<path d="M6.03978 17.003H11.9563C11.7177 18.4211 10.484 19.5015 8.99805 19.5015C7.51206 19.5015 6.27842 18.4211 6.03978 17.003ZM8.99805 0.00390625C13.1402 0.00390625 16.4981 3.36177 16.4981 7.50391V11.5024L17.9164 14.6625C17.9713 14.7848 17.9997 14.9174 17.9997 15.0515C17.9997 15.5762 17.5743 16.0015 17.0497 16.0015H0.950236C0.816451 16.0015 0.684175 15.9733 0.562068 15.9186C0.0831934 15.7042 -0.131222 15.1422 0.0831568 14.6633L1.49805 11.5028L1.49816 7.49099L1.50258 7.24107C1.64165 3.21035 4.95392 0.00390625 8.99805 0.00390625Z" fill="#FF003C"/>
</svg>
