<svg xmlns="http://www.w3.org/2000/svg" width="24" height="24" viewBox="0 0 24 24" fill="none">
    <path d="M12 4.00024C16.4183 4.00024 20 7.58197 20 12.0002C20 16.4185 16.4183 20.0002 12 20.0002C7.58172 20.0002 4 16.4185 4 12.0002C4 7.58197 7.58172 4.00024 12 4.00024ZM12 5.00024C8.13401 5.00024 5 8.13425 5 12.0002C5 15.8662 8.13401 19.0002 12 19.0002C15.866 19.0002 19 15.8662 19 12.0002C19 8.13425 15.866 5.00024 12 5.00024ZM12 15.5002C12.4142 15.5002 12.75 15.836 12.75 16.2502C12.75 16.6645 12.4142 17.0002 12 17.0002C11.5858 17.0002 11.25 16.6645 11.25 16.2502C11.25 15.836 11.5858 15.5002 12 15.5002ZM12 7.50024C13.3807 7.50024 14.5 8.61953 14.5 10.0002C14.5 10.7298 14.1848 11.408 13.6513 11.8773L13.4967 12.0027L13.2782 12.1658L13.1906 12.2374C13.1348 12.2853 13.0835 12.334 13.0346 12.3862C12.6963 12.7467 12.5 13.2425 12.5 14.0002C12.5 14.2764 12.2761 14.5002 12 14.5002C11.7239 14.5002 11.5 14.2764 11.5 14.0002C11.5 12.9882 11.7931 12.2477 12.3054 11.7019C12.4165 11.5834 12.532 11.4801 12.6609 11.379L12.9076 11.1946L13.0256 11.0949C13.325 10.8146 13.5 10.4223 13.5 10.0002C13.5 9.17182 12.8284 8.50024 12 8.50024C11.1716 8.50024 10.5 9.17182 10.5 10.0002C10.5 10.2764 10.2761 10.5002 10 10.5002C9.72386 10.5002 9.5 10.2764 9.5 10.0002C9.5 8.61953 10.6193 7.50024 12 7.50024Z" fill="#0099CC"/>
</svg>
