<svg width="18" height="21" viewBox="0 0 18 21" fill="none" xmlns="http://www.w3.org/2000/svg">
<path d="M8.99889 0.996094C13.0488 0.996094 16.3556 4.19084 16.4947 8.24515L16.4989 8.49609V12.5931L17.8789 15.7491C17.9479 15.907 17.9836 16.0775 17.9836 16.2499C17.9836 16.9402 17.424 17.4999 16.7336 17.4999L11.9989 17.5014C11.9989 19.1582 10.6557 20.5014 8.99889 20.5014C7.40121 20.5014 6.09523 19.2524 6.00398 17.6776L5.99844 17.4991L1.27375 17.4999C1.10242 17.4999 0.932907 17.4646 0.775753 17.3964C0.142551 17.1213 -0.147798 16.3851 0.127241 15.7519L1.49889 12.594V8.49599C1.49949 4.3412 4.85098 0.996094 8.99889 0.996094ZM10.4984 17.4991L7.49889 17.5014C7.49889 18.3298 8.17046 19.0014 8.99889 19.0014C9.77859 19.0014 10.4193 18.4065 10.492 17.6458L10.4984 17.4991ZM8.99889 2.49609C5.67873 2.49609 2.99937 5.17035 2.99889 8.49609V12.9057L1.65491 15.9999H16.3514L14.9989 12.9067L14.999 8.50895L14.9953 8.28375C14.8842 5.05027 12.2405 2.49609 8.99889 2.49609Z" fill="#323232"/>
</svg>
