<svg width="17" height="21" viewBox="0 0 17 21" fill="none" xmlns="http://www.w3.org/2000/svg">
<path d="M13.2476 0C13.6273 0 13.9411 0.282154 13.9907 0.648229L13.9976 0.75L13.997 1.499L14.7462 1.49986C15.9886 1.50029 16.9957 2.50734 16.9962 3.7499L16.997 14H13.2429L13.0888 14.0052C11.9713 14.0808 11.0775 14.9724 10.9985 16.089L10.9929 16.25V20.0046H2.75132C1.50886 20.0044 0.501629 18.9972 0.501304 17.7547L0.5 3.7502C0.499675 2.50751 1.50696 1.49986 2.74965 1.49986L3.497 1.499L3.49757 0.75C3.49757 0.335786 3.83335 0 4.24757 0C4.62726 0 4.94106 0.282154 4.99072 0.648229L4.99757 0.75L4.997 1.499H7.999L7.9995 0.75C7.9995 0.335786 8.33529 0 8.7495 0C9.1292 0 9.443 0.282154 9.49266 0.648229L9.4995 0.75L9.499 1.499H12.497L12.4976 0.75C12.4976 0.335786 12.8334 0 13.2476 0ZM16.557 15.5L12.492 19.565L12.4929 16.25L12.4997 16.1482C12.5449 15.8154 12.8083 15.552 13.1411 15.5068L13.2429 15.5H16.557ZM8.24598 14H4.24775L4.14597 14.0068C3.7799 14.0565 3.49775 14.3703 3.49775 14.75C3.49775 15.1297 3.7799 15.4435 4.14597 15.4932L4.24775 15.5H8.24598L8.34775 15.4932C8.71383 15.4435 8.99598 15.1297 8.99598 14.75C8.99598 14.3703 8.71383 14.0565 8.34775 14.0068L8.24598 14ZM13.246 10H4.24775L4.14597 10.0068C3.7799 10.0565 3.49775 10.3703 3.49775 10.75C3.49775 11.1297 3.7799 11.4435 4.14597 11.4932L4.24775 11.5H13.246L13.3478 11.4932C13.7138 11.4435 13.996 11.1297 13.996 10.75C13.996 10.3703 13.7138 10.0565 13.3478 10.0068L13.246 10ZM13.246 6H4.24775L4.14597 6.00685C3.7799 6.05651 3.49775 6.3703 3.49775 6.75C3.49775 7.1297 3.7799 7.44349 4.14597 7.49315L4.24775 7.5H13.246L13.3478 7.49315C13.7138 7.44349 13.996 7.1297 13.996 6.75C13.996 6.3703 13.7138 6.05651 13.3478 6.00685L13.246 6Z" fill="#FF003C"/>
</svg>
