<svg width="17" height="21" viewBox="0 0 17 21" fill="none" xmlns="http://www.w3.org/2000/svg">
<path d="M2.75132 20.0046C1.50886 20.0044 0.501629 18.9972 0.501304 17.7547L0.5 3.7502C0.499675 2.50751 1.50696 1.49986 2.74965 1.49986L3.497 1.499L3.49757 0.75C3.49757 0.370304 3.77972 0.0565091 4.14579 0.00684667L4.24757 0C4.62726 0 4.94106 0.282154 4.99072 0.648229L4.99757 0.75L4.997 1.499H7.999L7.9995 0.75C7.9995 0.370304 8.28166 0.0565091 8.64773 0.00684667L8.7495 0C9.1292 0 9.443 0.282154 9.49266 0.648229L9.4995 0.75L9.499 1.499H12.497L12.4976 0.75C12.4976 0.370304 12.7797 0.0565091 13.1458 0.00684667L13.2476 0C13.6273 0 13.9411 0.282154 13.9907 0.648229L13.9976 0.75L13.997 1.499L14.7462 1.49986C15.9886 1.50029 16.9957 2.50734 16.9962 3.7499L16.9976 14.7499C16.9976 14.8094 16.9905 14.8682 16.9768 14.9251L16.9477 15.0188L16.9028 15.115L16.8823 15.1471C16.8538 15.1951 16.8184 15.2398 16.7779 15.2803L12.2732 19.7849C12.2469 19.8112 12.2187 19.8356 12.1887 19.8577L12.2732 19.7849C12.2409 19.8173 12.2058 19.8464 12.1687 19.872L12.081 19.9241L11.9642 19.9712L11.851 19.9968L11.7974 20.0026L11.7429 20.0046H2.75132ZM14.746 2.99993H2.73956C2.33007 3.00545 2 3.3391 2 3.74993L2.0013 17.7544C2.00141 18.1687 2.33728 18.5046 2.75144 18.5046L10.992 18.504L10.9929 16.25C10.9929 15.0591 11.918 14.0844 13.0888 14.0052L13.2429 14H15.497L15.4962 3.75027C15.496 3.33596 15.1601 3.0001 14.746 2.99993ZM14.436 15.5H13.2429C12.8632 15.5 12.5494 15.7822 12.4997 16.1482L12.4929 16.25L12.492 17.444L14.436 15.5ZM4.24775 14H8.24598C8.6602 14 8.99598 14.3358 8.99598 14.75C8.99598 15.1297 8.71383 15.4435 8.34775 15.4932L8.24598 15.5H4.24775C3.83353 15.5 3.49775 15.1642 3.49775 14.75C3.49775 14.3703 3.7799 14.0565 4.14597 14.0068L4.24775 14H8.24598H4.24775ZM4.24775 10H13.246C13.6602 10 13.996 10.3358 13.996 10.75C13.996 11.1297 13.7138 11.4435 13.3478 11.4932L13.246 11.5H4.24775C3.83353 11.5 3.49775 11.1642 3.49775 10.75C3.49775 10.3703 3.7799 10.0565 4.14597 10.0068L4.24775 10H13.246H4.24775ZM4.24775 6H13.246C13.6602 6 13.996 6.33579 13.996 6.75C13.996 7.1297 13.7138 7.44349 13.3478 7.49315L13.246 7.5H4.24775C3.83353 7.5 3.49775 7.16421 3.49775 6.75C3.49775 6.3703 3.7799 6.05651 4.14597 6.00685L4.24775 6H13.246H4.24775Z" fill="#323232"/>
</svg>
