<svg width="24" height="24" viewBox="0 0 24 24" fill="none" xmlns="http://www.w3.org/2000/svg">
<path d="M17.7545 14.0031C18.9966 14.0031 20.0034 15.01 20.0034 16.252V16.8274C20.0034 17.7217 19.6838 18.5865 19.1023 19.2659C17.5329 21.0994 15.1457 22.0043 12.0004 22.0043C8.8545 22.0043 6.46849 21.0991 4.90219 19.2649C4.32242 18.5859 4.00391 17.7224 4.00391 16.8297V16.252C4.00391 15.01 5.01076 14.0031 6.25278 14.0031H17.7545ZM17.7545 15.5031H6.25278C5.83919 15.5031 5.50391 15.8384 5.50391 16.252V16.8297C5.50391 17.3653 5.69502 17.8834 6.04287 18.2908C7.29618 19.7585 9.26206 20.5043 12.0004 20.5043C14.7387 20.5043 16.7063 19.7584 17.9627 18.2905C18.3117 17.8829 18.5034 17.364 18.5034 16.8274V16.252C18.5034 15.8384 18.1681 15.5031 17.7545 15.5031ZM12.0004 2.00781C14.7618 2.00781 17.0004 4.24639 17.0004 7.00781C17.0004 9.76924 14.7618 12.0078 12.0004 12.0078C9.23894 12.0078 7.00036 9.76924 7.00036 7.00781C7.00036 4.24639 9.23894 2.00781 12.0004 2.00781ZM12.0004 3.50781C10.0674 3.50781 8.50036 5.07482 8.50036 7.00781C8.50036 8.94081 10.0674 10.5078 12.0004 10.5078C13.9334 10.5078 15.5004 8.94081 15.5004 7.00781C15.5004 5.07482 13.9334 3.50781 12.0004 3.50781Z" fill="#323232"/>
</svg>
