<svg width="24" height="24" viewBox="0 0 24 24" fill="none" xmlns="http://www.w3.org/2000/svg">
<g id="Person">
<path id="Shape" d="M17.7545 14.0031C18.9966 14.0031 20.0034 15.01 20.0034 16.252V17.1704C20.0034 17.7438 19.8242 18.3028 19.4908 18.7693C17.9449 20.9326 15.4206 22.0043 12.0004 22.0043C8.5794 22.0043 6.05643 20.9321 4.51427 18.7678C4.18231 18.3019 4.00391 17.744 4.00391 17.172V16.252C4.00391 15.01 5.01076 14.0031 6.25278 14.0031H17.7545ZM12.0004 2.00781C14.7618 2.00781 17.0004 4.24639 17.0004 7.00781C17.0004 9.76924 14.7618 12.0078 12.0004 12.0078C9.23894 12.0078 7.00036 9.76924 7.00036 7.00781C7.00036 4.24639 9.23894 2.00781 12.0004 2.00781Z" fill="#FF003C"/>
</g>
</svg>
