<svg width="20" height="21" viewBox="0 0 20 21" fill="none" xmlns="http://www.w3.org/2000/svg">
<path d="M6.25 0C6.66421 0 7 0.335786 7 0.75C7 1.1297 6.71785 1.44349 6.35177 1.49315L6.25 1.5H2.75C2.10279 1.5 1.57047 1.99187 1.50645 2.62219L1.5 2.75V6.25234C1.5 6.66655 1.16421 7.00234 0.75 7.00234C0.370304 7.00234 0.0565091 6.72018 0.00684667 6.35411L0 6.25234V2.75C0 1.28747 1.1417 0.0915956 2.58248 0.00501871L2.75 0H6.25ZM1.49315 13.6482C1.44349 13.2822 1.1297 13 0.75 13C0.370304 13 0.0565091 13.2822 0.00684667 13.6482L0 13.75V17.2523L0.00542641 17.4265C0.091815 18.8088 1.19934 19.9142 2.58248 19.9973L2.75 20.0023H6.25L6.35177 19.9955C6.71785 19.9458 7 19.632 7 19.2523C7 18.8726 6.71785 18.5588 6.35177 18.5092L6.25 18.5023H2.75L2.6222 18.4959C2.0339 18.4361 1.5662 17.9684 1.50645 17.3801L1.5 17.2523V13.75L1.49315 13.6482ZM19.9932 13.6482C19.9435 13.2822 19.6297 13 19.25 13C18.8358 13 18.5 13.3358 18.5 13.75V17.2523L18.4935 17.3801C18.4295 18.0105 17.8972 18.5023 17.25 18.5023H13.75L13.6482 18.5092C13.2822 18.5588 13 18.8726 13 19.2523C13 19.6665 13.3358 20.0023 13.75 20.0023H17.25L17.4175 19.9973C18.8583 19.9107 20 18.7149 20 17.2523V13.75L19.9932 13.6482ZM17.4175 0.00501871L17.25 0H13.75L13.6482 0.00684667C13.2822 0.0565091 13 0.370304 13 0.75C13 1.1297 13.2822 1.44349 13.6482 1.49315L13.75 1.5H17.25L17.3778 1.50645C17.9661 1.5662 18.4338 2.0339 18.4935 2.62219L18.5 2.75V6.25234L18.5068 6.35411C18.5565 6.72018 18.8703 7.00234 19.25 7.00234C19.6297 7.00234 19.9435 6.72018 19.9932 6.35411L20 6.25234V2.75L19.9946 2.57583C19.9082 1.19357 18.8007 0.0881326 17.4175 0.00501871ZM4.20493 9.76405L4.21332 9.74354C4.22189 9.72297 4.23644 9.68914 4.25742 9.64396C4.29943 9.55348 4.36688 9.41816 4.46328 9.2529C4.65664 8.92143 4.96278 8.47582 5.40828 8.03033C6.28776 7.15085 7.72863 6.25 10.0029 6.25C12.2773 6.25 13.7181 7.15085 14.5976 8.03033C15.0431 8.47582 15.3493 8.92143 15.5426 9.2529C15.639 9.41816 15.7065 9.55348 15.7485 9.64396C15.7695 9.68914 15.7926 9.74354 15.7926 9.74354L15.801 9.76416C15.9502 10.1443 16.3798 10.3472 16.7663 10.2022C17.1541 10.0568 17.3506 9.6245 17.2052 9.23666L17.2046 9.23497L17.2038 9.23291L17.2018 9.22768L17.196 9.21289C17.1914 9.20114 17.1851 9.18563 17.1772 9.16662C17.1613 9.1286 17.1388 9.07648 17.109 9.01229C17.0494 8.88402 16.9606 8.70684 16.8383 8.4971C16.5941 8.07857 16.2128 7.52418 15.6583 6.96967C14.5378 5.84915 12.7286 4.75 10.0029 4.75C7.27726 4.75 5.46813 5.84915 4.34762 6.96967C3.79311 7.52418 3.41175 8.07857 3.16761 8.4971C3.04526 8.70684 2.95646 8.88402 2.89691 9.01229C2.86711 9.07648 2.84455 9.1286 2.8287 9.16662C2.82078 9.18563 2.81453 9.20114 2.80989 9.21289L2.80411 9.22768C2.80198 9.23327 2.64237 9.97827 3.2396 10.2022C3.62649 10.3473 4.05765 10.1521 4.20413 9.76616L4.20493 9.76405ZM10.0029 8C8.06993 8 6.50293 9.567 6.50293 11.5C6.50293 13.433 8.06993 15 10.0029 15C11.9359 15 13.5029 13.433 13.5029 11.5C13.5029 9.567 11.9359 8 10.0029 8ZM8.00293 11.5C8.00293 10.3954 8.89836 9.5 10.0029 9.5C11.1075 9.5 12.0029 10.3954 12.0029 11.5C12.0029 12.6046 11.1075 13.5 10.0029 13.5C8.89836 13.5 8.00293 12.6046 8.00293 11.5Z" fill="#323232"/>
</svg>
