<svg width="20" height="20" viewBox="0 0 20 20" fill="none" xmlns="http://www.w3.org/2000/svg">
<path d="M10.0132 0.25C10.7471 0.25846 11.4782 0.343262 12.1947 0.503038C12.5074 0.572785 12.7413 0.833511 12.7768 1.15196L12.947 2.67881C13.024 3.37986 13.6159 3.91084 14.3216 3.91158C14.5113 3.91188 14.6989 3.87238 14.8742 3.79483L16.2748 3.17956C16.5661 3.05159 16.9064 3.12136 17.1239 3.35362C18.1361 4.43464 18.8899 5.73115 19.3287 7.14558C19.4233 7.45058 19.3144 7.78203 19.0573 7.9715L17.8159 8.88659C17.4617 9.14679 17.2526 9.56001 17.2526 9.99946C17.2526 10.4389 17.4617 10.8521 17.8166 11.1129L19.0592 12.0283C19.3163 12.2177 19.4253 12.5492 19.3307 12.8543C18.8921 14.2685 18.1387 15.5649 17.1271 16.6461C16.9098 16.8783 16.5697 16.9483 16.2785 16.8206L14.8721 16.2045C14.4698 16.0284 14.0077 16.0542 13.6275 16.274C13.2473 16.4937 12.9942 16.8812 12.9459 17.3177L12.7769 18.8444C12.742 19.1592 12.5131 19.4182 12.205 19.4915C10.7566 19.8361 9.24746 19.8361 7.79901 19.4915C7.49088 19.4182 7.26202 19.1592 7.22716 18.8444L7.05834 17.32C7.00875 16.8843 6.75532 16.498 6.3754 16.279C5.99549 16.06 5.53418 16.0343 5.13318 16.2094L3.72655 16.8256C3.4352 16.9533 3.09501 16.8833 2.87776 16.6509C1.8656 15.5685 1.11217 14.2705 0.674177 12.8548C0.579839 12.5499 0.688838 12.2186 0.945823 12.0293L2.18915 11.1133C2.54329 10.8531 2.75245 10.4399 2.75245 10.0005C2.75245 9.56101 2.54329 9.14779 2.18869 8.88725L0.946138 7.97285C0.688772 7.78345 0.579673 7.45178 0.674344 7.14658C1.1131 5.73215 1.86692 4.43564 2.8791 3.35462C3.09657 3.12236 3.43691 3.05259 3.72822 3.18056L5.1286 3.79572C5.53154 3.97256 5.99478 3.94585 6.37675 3.72269C6.75707 3.50209 7.01026 3.11422 7.05914 2.67764L7.22922 1.15196C7.26474 0.83335 7.49884 0.572541 7.81178 0.502942C8.52905 0.34342 9.26093 0.258654 10.0132 0.25ZM10.0007 6.99995C8.34382 6.99995 7.00067 8.3431 7.00067 9.99995C7.00067 11.6568 8.34382 13 10.0007 13C11.6575 13 13.0007 11.6568 13.0007 9.99995C13.0007 8.3431 11.6575 6.99995 10.0007 6.99995Z" fill="#FF003C"/>
</svg>
