<svg width="40" height="38" viewBox="0 0 40 38" fill="none" xmlns="http://www.w3.org/2000/svg">
<path d="M20 11.5C20 10.6716 19.3284 10 18.5 10C17.6716 10 17 10.6716 17 11.5V21.5C17 22.3284 17.6716 23 18.5 23H25.5C26.3284 23 27 22.3284 27 21.5C27 20.6716 26.3284 20 25.5 20H20V11.5ZM2.95255 14.2068C1.15282 12.7414 0 10.5059 0 8C0 3.58172 3.58172 0 8 0C10.506 0 12.7413 1.15263 14.2068 2.95256C16.0247 2.33497 17.9732 2 20 2C22.0268 2 23.9754 2.33498 25.7933 2.95261C27.2588 1.15268 29.4942 0 32.0002 0C36.4184 0 40.0002 3.58172 40.0002 8C40.0002 10.506 38.8474 12.7414 37.0475 14.2069C37.665 16.0248 38 17.9733 38 20C38 24.4306 36.3993 28.4872 33.7446 31.6233L37.5607 35.4393C38.1464 36.0251 38.1464 36.9749 37.5607 37.5607C36.9749 38.1464 36.0251 38.1464 35.4393 37.5607L31.6233 33.7446C28.4872 36.3993 24.4306 38 20 38C15.5694 38 11.5128 36.3993 8.37674 33.7446L4.56066 37.5607C3.97487 38.1464 3.02513 38.1464 2.43934 37.5607C1.85355 36.9749 1.85355 36.0251 2.43934 35.4393L6.25542 31.6233C3.60074 28.4872 2 24.4306 2 20C2 17.9733 2.33496 16.0248 2.95255 14.2068ZM3 8C3 9.26199 3.46713 10.4156 4.24026 11.2966C5.88058 8.33269 8.3327 5.88057 11.2966 4.24026C10.4157 3.46722 9.26193 3 8 3C5.23858 3 3 5.23858 3 8ZM35.7598 11.2967C36.5329 10.4157 37.0002 9.26201 37.0002 8C37.0002 5.23858 34.7616 3 32.0002 3C30.7382 3 29.5844 3.46723 28.7035 4.24032C31.6674 5.88065 34.1195 8.33279 35.7598 11.2967ZM5 20C5 28.2843 11.7157 35 20 35C28.2843 35 35 28.2843 35 20C35 11.7157 28.2843 5 20 5C11.7157 5 5 11.7157 5 20Z" fill="#FF9933"/>
</svg>
