<svg width="21" height="20" viewBox="0 0 21 20" fill="none" xmlns="http://www.w3.org/2000/svg">
<path d="M8.96051 1.898L9.95016 2.28747C10.3032 2.42641 10.6958 2.42641 11.0488 2.28747L12.0384 1.898C13.2498 1.42127 14.6211 1.98929 15.1406 3.18293L15.565 4.15813C15.7163 4.506 15.9939 4.78359 16.3418 4.93498L17.317 5.35937C18.5106 5.87882 19.0787 7.25014 18.6019 8.46149L18.2125 9.45114C18.0735 9.80417 18.0735 10.1967 18.2125 10.5498L18.6019 11.5394C19.0787 12.7508 18.5106 14.1221 17.317 14.6415L16.3418 15.0659C15.9939 15.2173 15.7163 15.4949 15.565 15.8428L15.1406 16.818C14.6211 18.0116 13.2498 18.5796 12.0384 18.1029L11.0488 17.7134C10.6958 17.5745 10.3032 17.5745 9.95016 17.7134L8.96051 18.1029C7.74917 18.5796 6.37784 18.0116 5.85839 16.818L5.434 15.8428C5.28261 15.4949 5.00503 15.2173 4.65715 15.0659L3.68196 14.6415C2.48832 14.1221 1.9203 12.7508 2.39702 11.5394L2.7865 10.5498C2.92543 10.1967 2.92543 9.80417 2.7865 9.45114L2.39702 8.46149C1.9203 7.25014 2.48832 5.87882 3.68196 5.35937L4.65715 4.93498C5.00503 4.78359 5.28261 4.506 5.434 4.15813L5.85839 3.18293C6.37784 1.98929 7.74917 1.42127 8.96051 1.898ZM13.1258 7.66827L9.47807 11.7719L7.85303 10.1469C7.65777 9.95164 7.34119 9.95164 7.14593 10.1469C6.95066 10.3422 6.95066 10.6587 7.14593 10.854L9.14593 12.854C9.34935 13.0574 9.68206 13.0477 9.87318 12.8326L13.8732 8.33264C14.0566 8.12625 14.0381 7.81021 13.8317 7.62675C13.6253 7.44329 13.3092 7.46188 13.1258 7.66827Z" fill="white"/>
</svg>
