<svg xmlns="http://www.w3.org/2000/svg" width="40" height="40" viewBox="0 0 40 40" fill="none">
    <rect width="40" height="40" rx="10" fill="#F7F5F5"/>
    <path fill-rule="evenodd" clip-rule="evenodd" d="M30 20C30 25.5228 25.5228 30 20 30C14.4772 30 10 25.5228 10 20C10 14.4772 14.4772 10 20 10C25.5228 10 30 14.4772 30 20ZM28.5 20C28.5 24.6944 24.6944 28.5 20 28.5C15.3056 28.5 11.5 24.6944 11.5 20C11.5 15.3056 15.3056 11.5 20 11.5C24.6944 11.5 28.5 15.3056 28.5 20Z" fill="#323232"/>
    <path d="M16.589 24L22.0518 16H23.4118L17.949 24H16.589ZM17.2861 20.32C16.8976 20.32 16.5547 20.2324 16.2576 20.0571C15.9604 19.8743 15.7242 19.619 15.549 19.2914C15.3814 18.9562 15.2976 18.5638 15.2976 18.1143C15.2976 17.6648 15.3814 17.2762 15.549 16.9486C15.7242 16.621 15.9604 16.3657 16.2576 16.1829C16.5547 16 16.8976 15.9086 17.2861 15.9086C17.6747 15.9086 18.0176 16 18.3147 16.1829C18.6118 16.3657 18.8442 16.621 19.0118 16.9486C19.1795 17.2762 19.2633 17.6648 19.2633 18.1143C19.2633 18.5638 19.1795 18.9562 19.0118 19.2914C18.8442 19.619 18.6118 19.8743 18.3147 20.0571C18.0176 20.2324 17.6747 20.32 17.2861 20.32ZM17.2861 19.3829C17.5376 19.3829 17.7395 19.28 17.8918 19.0743C18.0442 18.861 18.1204 18.541 18.1204 18.1143C18.1204 17.6876 18.0442 17.3714 17.8918 17.1657C17.7395 16.9524 17.5376 16.8457 17.2861 16.8457C17.0423 16.8457 16.8404 16.9524 16.6804 17.1657C16.528 17.3714 16.4518 17.6876 16.4518 18.1143C16.4518 18.5333 16.528 18.8495 16.6804 19.0629C16.8404 19.2762 17.0423 19.3829 17.2861 19.3829ZM22.7147 24.0914C22.3337 24.0914 21.9909 24.0038 21.6861 23.8286C21.389 23.6457 21.1566 23.3905 20.989 23.0629C20.8214 22.7276 20.7376 22.3352 20.7376 21.8857C20.7376 21.4362 20.8214 21.0476 20.989 20.72C21.1566 20.3924 21.389 20.1371 21.6861 19.9543C21.9909 19.7714 22.3337 19.68 22.7147 19.68C23.1109 19.68 23.4576 19.7714 23.7547 19.9543C24.0518 20.1371 24.2842 20.3924 24.4518 20.72C24.6195 21.0476 24.7033 21.4362 24.7033 21.8857C24.7033 22.3352 24.6195 22.7276 24.4518 23.0629C24.2842 23.3905 24.0518 23.6457 23.7547 23.8286C23.4576 24.0038 23.1109 24.0914 22.7147 24.0914ZM22.7147 23.1543C22.9661 23.1543 23.168 23.0514 23.3204 22.8457C23.4728 22.6324 23.549 22.3124 23.549 21.8857C23.549 21.4667 23.4728 21.1505 23.3204 20.9371C23.168 20.7238 22.9661 20.6171 22.7147 20.6171C22.4709 20.6171 22.269 20.7238 22.109 20.9371C21.9566 21.1429 21.8804 21.459 21.8804 21.8857C21.8804 22.3124 21.9566 22.6324 22.109 22.8457C22.269 23.0514 22.4709 23.1543 22.7147 23.1543Z" fill="#FF003C"/>
</svg>
