<svg xmlns="http://www.w3.org/2000/svg" width="40" height="40" viewBox="0 0 40 40" fill="none">
    <rect width="40" height="40" rx="10" fill="#F7F5F5"/>
    <path d="M11 13.75C11 13.3358 11.3358 13 11.75 13C14.4134 13 17.008 12.0565 19.55 10.15C19.8167 9.95 20.1833 9.95 20.45 10.15C22.992 12.0565 25.5866 13 28.25 13C28.6642 13 29 13.3358 29 13.75V19C29 24.0012 26.0424 27.6757 20.2749 29.9478C20.0982 30.0174 19.9018 30.0174 19.7251 29.9478C13.9576 27.6757 11 24.0012 11 19V13.75ZM12.5 14.4779V19C12.5 23.2556 14.9534 26.3789 20 28.4419C25.0466 26.3789 27.5 23.2556 27.5 19V14.4779C24.9227 14.3258 22.4192 13.3883 20 11.6778C17.5808 13.3883 15.0773 14.3258 12.5 14.4779Z" fill="#323232"/>
    <path d="M18.75 21.4393L23.2197 16.9697C23.5126 16.6768 23.9874 16.6768 24.2803 16.9697C24.5466 17.2359 24.5708 17.6526 24.3529 17.9462L24.2803 18.0303L19.2803 23.0303C19.0141 23.2966 18.5974 23.3208 18.3038 23.1029L18.2197 23.0303L15.7197 20.5303C15.4268 20.2374 15.4268 19.7626 15.7197 19.4697C15.9859 19.2034 16.4026 19.1792 16.6962 19.3971L16.7803 19.4697L18.75 21.4393Z" fill="#FF003C"/>
</svg>
