<svg width="66" height="20" viewBox="0 0 66 20" fill="none" xmlns="http://www.w3.org/2000/svg">
<g clip-path="url(#clip0_12355_39175)">
<path d="M22.2738 0H17.0742V3.05522H22.2738V0Z" fill="#1D204F"/>
<path d="M2.68809 13.416C4.17868 14.8392 6.16116 15.6321 8.22209 15.6293C9.20016 15.6293 10.1262 15.2932 10.1262 14.6209C10.1262 13.9487 9.40523 13.6127 7.70616 13.3068C4.87615 12.7925 0.550445 12.1304 0.550445 7.82487C0.550445 4.91584 2.97042 2.26562 7.68095 2.26562C10.4858 2.26562 13.0083 3.06388 14.9644 4.65871L12.1848 8.33908C10.6925 7.20808 8.76152 6.64175 7.39695 6.64175C6.11135 6.64175 5.82733 7.1039 5.82733 7.54251C5.82733 8.21473 6.52307 8.4433 8.34816 8.75251C11.1799 9.24151 15.3762 10.065 15.3762 14.0277C15.3762 17.8123 12.5697 20.0004 7.9633 20.0004C4.30813 20.0004 1.81085 18.9181 -0.0175781 17.2712L2.68809 13.416Z" fill="#1D204F"/>
<path d="M17.0742 19.697V4.37891H22.2738V19.697H17.0742Z" fill="#1D204F"/>
<path d="M25.0527 16.8867V19.6982H27.8659L25.0527 16.8867Z" fill="#1D204F"/>
<path d="M39.084 19.6955H44.2836V11.1836L39.084 16.3832V19.6955Z" fill="#1D204F"/>
<path d="M59.9305 19.6918L59.2583 17.4786H52.6672L51.995 19.6918H46.3652L52.6974 2.52344H59.2347L65.567 19.6918H59.9305ZM55.9661 7.10458L54.0099 13.1545H57.9222L55.9661 7.10458Z" fill="#1D204F"/>
<path d="M44.2848 0.00672231V7.26329L39.0852 12.4646L31.8539 19.6959L28.2189 16.0609L28.2205 16.0592L25.0527 12.8914V5.62644L25.0544 5.62308L31.8556 12.4242L44.2781 0L44.2848 0.00672231Z" fill="#00B04E"/>
</g>
<defs>
<clipPath id="clip0_12355_39175">
<rect width="66" height="20" fill="white"/>
</clipPath>
</defs>
</svg>
