<svg xmlns="http://www.w3.org/2000/svg" width="40" height="40" viewBox="0 0 40 40" fill="none">
    <rect width="40" height="40" rx="10" fill="#F7F5F5"/>
    <path d="M12.75 13C11.2312 13 10 14.2312 10 15.75V24.25C10 25.7688 11.2312 27 12.75 27H27.25C28.7688 27 30 25.7688 30 24.25V15.75C30 14.2312 28.7688 13 27.25 13H12.75ZM11.5 24.25V19H28.5V24.25C28.5 24.9404 27.9404 25.5 27.25 25.5H12.75C12.0596 25.5 11.5 24.9404 11.5 24.25ZM11.5 17.5V15.75C11.5 15.0596 12.0596 14.5 12.75 14.5H27.25C27.9404 14.5 28.5 15.0596 28.5 15.75V17.5H11.5Z" fill="#323232"/>
    <path d="M23.75 22.5C23.3358 22.5 23 22.8358 23 23.25C23 23.6642 23.3358 24 23.75 24H26.25C26.6642 24 27 23.6642 27 23.25C27 22.8358 26.6642 22.5 26.25 22.5H23.75Z" fill="#FF003C"/>
</svg>
