<svg xmlns="http://www.w3.org/2000/svg" width="40" height="40" viewBox="0 0 40 40" fill="none">
    <rect width="40" height="40" rx="10" fill="#F7F5F5"/>
    <path d="M13.7533 30.0046C12.5108 30.0044 11.5036 28.9972 11.5033 27.7547L11.502 13.7502C11.5016 12.5075 12.5089 11.4999 13.7516 11.4999L14.499 11.499L14.4995 10.75C14.4995 10.3703 14.7817 10.0565 15.1477 10.0068L15.2495 10C15.6292 10 15.943 10.2822 15.9927 10.6482L15.9995 10.75L15.999 11.499H19.001L19.0015 10.75C19.0015 10.3703 19.2836 10.0565 19.6497 10.0068L19.7515 10C20.1312 10 20.4449 10.2822 20.4946 10.6482L20.5015 10.75L20.501 11.499H23.499L23.4995 10.75C23.4995 10.3703 23.7817 10.0565 24.1477 10.0068L24.2495 10C24.6292 10 24.943 10.2822 24.9927 10.6482L24.9995 10.75L24.999 11.499L25.7481 11.4999C26.9905 11.5003 27.9977 12.5073 27.9981 13.7499L27.9995 24.7499C27.9995 24.8094 27.9925 24.8682 27.9788 24.9251L27.9497 25.0188L27.9047 25.115L27.8843 25.1471C27.8558 25.1951 27.8204 25.2398 27.7798 25.2803L23.2752 29.7849C23.2489 29.8112 23.2206 29.8356 23.1907 29.8577L23.2752 29.7849C23.2428 29.8173 23.2078 29.8464 23.1707 29.872L23.0829 29.9241L22.9661 29.9712L22.853 29.9968L22.7993 30.0026L22.7448 30.0046H13.7533ZM25.7479 12.9999H13.7415C13.332 13.0054 13.002 13.3391 13.002 13.7499L13.0033 27.7544C13.0034 28.1687 13.3392 28.5046 13.7534 28.5046L21.994 28.504L21.9948 26.25C21.9948 25.0591 22.92 24.0844 24.0908 24.0052L24.2448 24H26.499L26.4981 13.7503C26.498 13.336 26.1621 13.0001 25.7479 12.9999ZM25.438 25.5H24.2448C23.8651 25.5 23.5513 25.7822 23.5017 26.1482L23.4948 26.25L23.494 27.444L25.438 25.5Z" fill="#323232"/>
    <path d="M15.25 24H19.2482C19.6625 24 19.9982 24.3358 19.9982 24.75C19.9982 25.1297 19.7161 25.4435 19.35 25.4932L19.2482 25.5H15.25C14.8358 25.5 14.5 25.1642 14.5 24.75C14.5 24.3703 14.7822 24.0565 15.1482 24.0068L15.25 24ZM15.25 20H24.2482C24.6624 20 24.9982 20.3358 24.9982 20.75C24.9982 21.1297 24.7161 21.4435 24.35 21.4932L24.2482 21.5H15.25C14.8358 21.5 14.5 21.1642 14.5 20.75C14.5 20.3703 14.7822 20.0565 15.1482 20.0068L15.25 20ZM15.25 16H24.2482C24.6624 16 24.9982 16.3358 24.9982 16.75C24.9982 17.1297 24.7161 17.4435 24.35 17.4932L24.2482 17.5H15.25C14.8358 17.5 14.5 17.1642 14.5 16.75C14.5 16.3703 14.7822 16.0565 15.1482 16.0068L15.25 16Z" fill="#FF003C"/>
</svg>
