<svg width="20" height="20" viewBox="0 0 20 20" fill="none" xmlns="http://www.w3.org/2000/svg">
<path d="M8.461 1.89775L9.45065 2.28723C9.80368 2.42616 10.1962 2.42616 10.5493 2.28723L11.5389 1.89775C12.7503 1.42103 14.1216 1.98905 14.6411 3.18269L15.0654 4.15788C15.2168 4.50576 15.4944 4.78334 15.8423 4.93473L16.8175 5.35912C18.0111 5.87858 18.5792 7.2499 18.1024 8.46124L17.7129 9.4509C17.574 9.80393 17.574 10.1965 17.7129 10.5495L18.1024 11.5392C18.5792 12.7505 18.0111 14.1218 16.8175 14.6413L15.8423 15.0657C15.4944 15.2171 15.2168 15.4947 15.0654 15.8425L14.6411 16.8177C14.1216 18.0114 12.7503 18.5794 11.5389 18.1027L10.5493 17.7132C10.1962 17.5743 9.80368 17.5743 9.45065 17.7132L8.461 18.1027C7.24966 18.5794 5.87833 18.0114 5.35888 16.8177L4.93449 15.8425C4.7831 15.4947 4.50551 15.2171 4.15764 15.0657L3.18245 14.6413C1.9888 14.1218 1.42078 12.7505 1.89751 11.5392L2.28698 10.5495C2.42592 10.1965 2.42592 9.80393 2.28698 9.4509L1.89751 8.46124C1.42078 7.2499 1.9888 5.87858 3.18245 5.35912L4.15764 4.93473C4.50551 4.78334 4.7831 4.50576 4.93449 4.15788L5.35888 3.18269C5.87833 1.98905 7.24966 1.42103 8.461 1.89775ZM11.9051 2.82828L10.9155 3.21776C10.3271 3.44932 9.67283 3.44932 9.08444 3.21776L8.09479 2.82828C7.3845 2.54875 6.5804 2.88182 6.27581 3.58173L5.85143 4.55692C5.59911 5.13671 5.13647 5.59935 4.55668 5.85167L3.58148 6.27606C2.88157 6.58065 2.54851 7.38474 2.82804 8.09503L3.21752 9.08469C3.44908 9.67307 3.44908 10.3273 3.21752 10.9157L2.82804 11.9054C2.54851 12.6157 2.88157 13.4198 3.58148 13.7244L4.55668 14.1488C5.13647 14.4011 5.59911 14.8637 5.85143 15.4435L6.27581 16.4187C6.5804 17.1186 7.3845 17.4517 8.09479 17.1721L9.08444 16.7827C9.67283 16.5511 10.3271 16.5511 10.9155 16.7827L11.9051 17.1721C12.6154 17.4517 13.4195 17.1186 13.7241 16.4187L14.1485 15.4435C14.4008 14.8637 14.8635 14.4011 15.4433 14.1488L16.4185 13.7244C17.1184 13.4198 17.4514 12.6157 17.1719 11.9054L16.7824 10.9157C16.5509 10.3273 16.5509 9.67307 16.7824 9.08469L17.1719 8.09503C17.4514 7.38474 17.1184 6.58065 16.4185 6.27606L15.4433 5.85167C14.8635 5.59935 14.4008 5.13671 14.1485 4.55692L13.7241 3.58173C13.4195 2.88182 12.6154 2.54875 11.9051 2.82828ZM8.97856 11.7717L12.6263 7.66803C12.8097 7.46164 13.1258 7.44305 13.3321 7.62651C13.5156 7.78958 13.5507 8.05741 13.4274 8.25987L13.3737 8.33239L9.37367 12.8324C9.20378 13.0235 8.92203 13.0525 8.71864 12.9137L8.64641 12.8538L6.64641 10.8538C6.45115 10.6585 6.45115 10.3419 6.64641 10.1467C6.81998 9.97309 7.0894 9.95381 7.28427 10.0888L7.35352 10.1467L8.97856 11.7717L12.6263 7.66803L8.97856 11.7717Z" fill="#080808"/>
</svg>
