<svg width="16" height="10" viewBox="0 0 16 10" fill="none" xmlns="http://www.w3.org/2000/svg">
<path d="M1.25518 6.60214C1.93863 3.32689 4.79046 1 7.99611 1C11.2017 1 14.0535 3.32688 14.737 6.60215C14.7935 6.87246 15.0583 7.04587 15.3286 6.98946C15.599 6.93304 15.7724 6.66817 15.7159 6.39785C14.9386 2.67312 11.6895 0 7.99611 0C4.30269 0 1.05351 2.67311 0.276269 6.39786C0.219861 6.66818 0.393271 6.93305 0.66359 6.98946C0.93391 7.04587 1.19878 6.87246 1.25518 6.60214ZM7.98562 3C9.91862 3 11.4856 4.567 11.4856 6.5C11.4856 8.43299 9.91862 10 7.98562 10C6.05263 10 4.48562 8.43299 4.48562 6.5C4.48562 4.567 6.05263 3 7.98562 3Z" fill="#323232"/>
</svg>
