<svg width="20" height="18" viewBox="0 0 20 18" fill="none" xmlns="http://www.w3.org/2000/svg">
<path d="M10.8197 1.57912L9.99895 2.40163L9.1757 1.57838C7.07663 -0.520693 3.67337 -0.520693 1.5743 1.57838C-0.524767 3.67744 -0.524767 7.08071 1.5743 9.17977L9.46967 17.0751C9.76256 17.368 10.2374 17.368 10.5303 17.0751L18.4318 9.17831C20.5262 7.07228 20.5298 3.67857 18.4303 1.57912C16.3274 -0.523771 12.9226 -0.523767 10.8197 1.57912ZM17.3682 8.12059L10 15.4842L2.63496 8.11911C1.12168 6.60583 1.12168 4.15232 2.63496 2.63904C4.14824 1.12575 6.60176 1.12575 8.11504 2.63904L9.47248 3.99648C9.77035 4.29435 10.255 4.28854 10.5457 3.98363L11.8803 2.63978C13.3974 1.12268 15.8526 1.12268 17.3697 2.63978C18.8833 4.15343 18.8807 6.59966 17.3682 8.12059Z" fill="#323232"/>
</svg>
