<svg width="69" height="26" viewBox="0 0 69 26" fill="none" xmlns="http://www.w3.org/2000/svg">
<g clip-path="url(#clip0_1479_2947)">
<path d="M0.366943 19.0512L1.98456 18.2124C2.70351 19.6503 3.81188 20.3393 5.33963 20.3393C6.80747 20.3393 7.82597 19.86 7.82597 18.7816C7.82597 17.7331 7.07708 17.2539 5.07003 16.6547C2.70351 15.9358 0.816283 15.2768 0.816283 12.9702C0.816283 10.9032 2.49382 9.55518 4.9502 9.55518C7.34668 9.55518 8.75461 10.7235 9.47355 12.1613L7.97575 13.1798C7.25681 11.9816 6.20835 11.4124 4.92025 11.4124C3.57223 11.4124 2.79338 11.8917 2.79338 12.7904C2.79338 13.9287 3.6621 14.2882 5.63919 14.8873C7.9458 15.5464 9.77311 16.3252 9.77311 18.6019C9.77311 20.579 8.09558 22.1367 5.18985 22.1367C2.85329 22.1367 1.1458 20.8785 0.366943 19.0512ZM11.3009 19.8001C11.3009 17.9129 12.9185 16.6547 16.9625 16.2054V15.9358C16.9625 15.0671 16.5132 14.6776 15.5247 14.6776C14.3264 14.6776 13.3379 15.2768 12.589 15.8459L11.6004 14.5878C12.5291 13.749 13.9969 13.0301 15.7943 13.0301C18.1308 13.0301 18.9097 14.1384 18.9097 16.1754V19.7702C18.9097 20.8186 18.9696 21.4477 19.1493 21.897H17.1123C16.9925 21.5376 16.9026 21.268 16.9026 20.7887C16.0039 21.6873 14.9854 22.0468 13.6973 22.0468C12.3493 22.0468 11.3009 21.238 11.3009 19.8001ZM16.9925 19.4706V17.5534C14.596 17.8829 13.3079 18.482 13.3079 19.4107C13.3079 20.0997 13.7872 20.4591 14.5061 20.4591C15.5247 20.4891 16.3335 20.0697 16.9925 19.4706ZM22.2647 21.897V14.7975H20.7669V13.1798H22.2647V12.2812C22.2647 10.8133 22.8639 9.70496 25.0806 9.70496C25.47 9.70496 26.1291 9.76487 26.2788 9.79482V11.3525C26.159 11.3226 25.8295 11.2926 25.5898 11.2926C24.8709 11.2926 24.2718 11.5023 24.2718 12.4309V13.2098H26.159V14.8274H24.2718V21.927H22.2647V21.897ZM27.2075 17.5534C27.2075 14.2583 29.544 13.0301 31.3414 13.0301C33.2885 13.0301 35.1458 14.1983 35.1458 17.7331V18.2124H29.2445C29.3343 19.7702 30.2929 20.4591 31.581 20.4591C32.7194 20.4591 33.3784 20.0697 34.0075 19.4406L35.0859 20.4891C34.1872 21.4776 32.989 22.0468 31.4313 22.0468C29.2445 22.0768 27.2075 20.7587 27.2075 17.5534ZM33.3185 16.7146C33.1987 15.3966 32.5396 14.6776 31.3414 14.6776C30.3528 14.6776 29.4542 15.2468 29.2744 16.7146H33.3185Z" fill="#162B75"/>
<path d="M37.6921 21.8971V9.79492H39.13V16.0258L44.6419 9.79492H46.3794L42.2155 14.4081L46.9485 21.8971H45.271L41.2569 15.4866L39.13 17.7932V21.8971H37.6921Z" fill="#162B75"/>
<path d="M47.7273 17.5832C47.7273 14.4379 49.8242 13.0898 51.6515 13.0898C53.6885 13.0898 55.2462 14.5277 55.2462 17.6731V17.9727H49.1352C49.1951 19.9198 50.3035 20.9683 51.7414 20.9683C52.9995 20.9683 53.6885 20.459 54.3476 19.5603L55.1564 20.2793C54.3476 21.4176 53.2691 22.1066 51.6216 22.1066C49.5846 22.0766 47.7273 20.5788 47.7273 17.5832ZM53.8982 16.8343C53.7784 15.3066 53.0595 14.2581 51.6216 14.2581C50.4533 14.2581 49.3749 15.0669 49.1652 16.8343H53.8982Z" fill="#162B75"/>
<path d="M56.2649 25.0127L56.5944 23.8744C56.8341 23.9343 57.2534 24.0242 57.8825 24.0242C58.7812 24.0242 59.2006 23.6348 59.5301 22.796L59.8596 21.9572L56.5045 13.27H58.0023L60.5486 20.2797H60.5785L63.1248 13.27H64.5627L60.8481 22.9158C60.249 24.4436 59.59 25.2524 57.9125 25.2524C57.1336 25.2224 56.6543 25.1326 56.2649 25.0127Z" fill="#162B75"/>
<path d="M65.0718 14.528C65.0718 13.7791 65.6409 13.21 66.3898 13.21C67.1387 13.21 67.7079 13.7791 67.7079 14.528C67.7079 15.2769 67.1387 15.8461 66.3898 15.8461C65.6409 15.8461 65.0718 15.2769 65.0718 14.528ZM67.4383 14.528C67.4383 13.9289 66.989 13.4496 66.3898 13.4496C65.7907 13.4496 65.3414 13.8989 65.3414 14.528C65.3414 15.1271 65.7907 15.6064 66.3898 15.6064C66.989 15.6064 67.4383 15.1571 67.4383 14.528ZM65.8806 13.7791H66.4498C66.8092 13.7791 67.0189 13.9289 67.0189 14.2584C67.0189 14.4681 66.929 14.5879 66.7493 14.6778L67.0489 15.217H66.6894L66.4198 14.7078H66.2401V15.217H65.8806V13.7791ZM66.4198 14.4681C66.5696 14.4681 66.6594 14.4082 66.6594 14.2884C66.6594 14.1686 66.5696 14.1086 66.4198 14.1086H66.2401V14.4681H66.4198Z" fill="#162B75"/>
<path d="M9.89299 1.04785H10.2525L11.4507 4.46283H11.1212L10.7617 3.41437H9.35378L8.99431 4.46283H8.66479L9.89299 1.04785ZM10.6419 3.14477L10.0727 1.46723L9.50356 3.14477H10.6419Z" fill="#878A8F"/>
<path d="M12.2295 1.07764H12.6489L13.7872 4.04328L14.9255 1.07764H15.3449V4.46266H15.0154V1.61684C14.9555 1.76662 14.8956 2.00627 14.8057 2.21596L13.937 4.46266H13.6374L12.7687 2.21596C12.6788 2.00627 12.6189 1.85649 12.559 1.61684V4.46266H12.2594V1.07764H12.2295Z" fill="#878A8F"/>
<path d="M16.3933 1.07764H18.4303V1.3772H16.7228V2.51552H17.981V2.81508H16.7228V4.1631H18.5202V4.46266H16.3933V1.07764Z" fill="#878A8F"/>
<path d="M19.3591 1.07764H20.4974C21.2463 1.07764 21.6657 1.40715 21.6657 2.00627C21.6657 2.54548 21.3361 2.84504 20.8569 2.93491L21.7256 4.49261H21.3361L20.4974 2.96486H19.6586V4.49261H19.3291V1.07764H19.3591ZM20.4674 2.6653C21.0366 2.6653 21.3361 2.51552 21.3361 2.00627C21.3361 1.52698 21.0366 1.3772 20.4674 1.3772H19.6886V2.6653H20.4674Z" fill="#878A8F"/>
<path d="M22.6543 1.07764H22.9838V4.46266H22.6543V1.07764Z" fill="#878A8F"/>
<path d="M23.9124 2.75502C23.9124 1.73652 24.4815 1.01758 25.3203 1.01758C26.0093 1.01758 26.3987 1.43696 26.5485 2.06604L26.2489 2.1559C26.0991 1.6167 25.8595 1.34709 25.3203 1.34709C24.6613 1.34709 24.2419 1.91626 24.2419 2.78498C24.2419 3.71361 24.6613 4.28278 25.3203 4.28278C25.8295 4.28278 26.1291 3.98322 26.2789 3.41405L26.5784 3.47397C26.3987 4.133 25.9793 4.55238 25.2903 4.55238C24.4815 4.52242 23.9124 3.83344 23.9124 2.75502Z" fill="#878A8F"/>
<path d="M28.2858 1.04785H28.6453L29.8435 4.46283H29.514L29.1246 3.41437H27.7466L27.3871 4.46283H27.0576L28.2858 1.04785ZM29.0347 3.14477L28.4655 1.46723L27.8964 3.14477H29.0347Z" fill="#878A8F"/>
<path d="M30.6226 1.07764H30.982L32.8393 3.86354V1.07764H33.1389V4.46266H32.8393L30.9221 1.58689V4.46266H30.6226V1.07764Z" fill="#878A8F"/>
<path d="M35.4155 1.07764H37.4525V1.3772H35.7151V2.51552H36.9732V2.81508H35.7151V4.1631H37.5124V4.46266H35.4155V1.07764Z" fill="#878A8F"/>
<path d="M39.2498 2.63535L38.2013 1.07764H38.5907L39.4295 2.3957L40.2683 1.07764H40.6277L39.6092 2.63535L40.7775 4.46266H40.418L39.3995 2.90495L38.381 4.46266H38.0515L39.2498 2.63535Z" fill="#878A8F"/>
<path d="M41.5564 1.07764H42.6947C43.4436 1.07764 43.893 1.3772 43.893 2.00627C43.893 2.69526 43.3837 2.96486 42.6648 2.96486H41.8859V4.46266H41.5564V1.07764ZM42.6648 2.6653C43.2339 2.6653 43.5335 2.48557 43.5335 2.00627C43.5335 1.55693 43.2339 1.3772 42.6648 1.3772H41.8859V2.6653H42.6648Z" fill="#878A8F"/>
<path d="M44.6719 1.07764H45.8102C46.5591 1.07764 46.9785 1.40715 46.9785 2.00627C46.9785 2.54548 46.649 2.84504 46.1697 2.93491L47.0384 4.49261H46.6789L45.8402 2.96486H45.0014V4.49261H44.6719V1.07764ZM45.7802 2.6653C46.3494 2.6653 46.649 2.51552 46.649 2.00627C46.649 1.52698 46.3494 1.3772 45.7802 1.3772H45.0014V2.6653H45.7802Z" fill="#878A8F"/>
<path d="M47.937 1.07764H49.974V1.3772H48.2665V2.51552H49.5247V2.81508H48.2665V4.1631H50.0639V4.46266H47.937V1.07764Z" fill="#878A8F"/>
<path d="M50.6331 3.62392L50.9326 3.50409C51.0824 3.98339 51.4419 4.22304 51.8912 4.22304C52.4005 4.22304 52.73 3.98339 52.73 3.59396C52.73 3.23449 52.5502 3.05475 51.8313 2.84506C51.1124 2.60541 50.7229 2.42568 50.7229 1.85652C50.7229 1.37722 51.1723 0.987793 51.7714 0.987793C52.4005 0.987793 52.7899 1.31731 52.9397 1.76665L52.6701 1.88647C52.4903 1.43713 52.1908 1.2574 51.7714 1.2574C51.322 1.2574 51.0524 1.49704 51.0524 1.82656C51.0524 2.21599 51.2921 2.33581 51.9811 2.57546C52.7 2.81511 53.0295 3.0248 53.0295 3.59396C53.0295 4.16312 52.5203 4.52259 51.8612 4.52259C51.2322 4.52259 50.7828 4.19308 50.6331 3.62392Z" fill="#878A8F"/>
<path d="M53.7485 3.62392L54.0481 3.50409C54.1979 3.98339 54.5573 4.22304 55.0067 4.22304C55.5159 4.22304 55.8455 3.98339 55.8455 3.59396C55.8455 3.23449 55.6657 3.05475 54.9468 2.84506C54.2278 2.60541 53.8384 2.42568 53.8384 1.85652C53.8384 1.37722 54.2877 0.987793 54.8869 0.987793C55.5159 0.987793 55.9054 1.31731 56.0551 1.76665L55.7855 1.88647C55.6058 1.43713 55.3062 1.2574 54.8869 1.2574C54.4375 1.2574 54.1679 1.49704 54.1679 1.82656C54.1679 2.21599 54.4076 2.33581 55.0966 2.57546C55.8155 2.81511 56.145 3.0248 56.145 3.59396C56.145 4.16312 55.6358 4.52259 54.9767 4.52259C54.3477 4.52259 53.8983 4.19308 53.7485 3.62392Z" fill="#878A8F"/>
</g>
<defs>
<clipPath id="clip0_1479_2947">
<rect width="68" height="25.0432" fill="white" transform="translate(0.0673828 0.478516)"/>
</clipPath>
</defs>
</svg>
