<svg width="47" height="42" viewBox="0 0 47 42" fill="none" xmlns="http://www.w3.org/2000/svg">
<path d="M46.0674 41.3989H0V17.9147H46.0674V41.3989Z" fill="#2251AA"/>
<path d="M22.1258 0.800539L19.7836 11.7509H16.9507L19.2932 0.800539H22.1258ZM34.0442 7.87143L35.5352 3.75918L36.3933 7.87143H34.0442ZM37.2063 11.7509H39.8255L37.537 0.800539H35.1207C34.5762 0.800539 34.1173 1.11628 33.9139 1.60344L29.6632 11.7509H32.6384L33.229 10.1156H36.8629L37.2063 11.7509ZM29.8105 8.17584C29.8231 5.28616 25.816 5.12583 25.8426 3.83455C25.8512 3.44221 26.2253 3.02426 27.0437 2.91762C27.4494 2.86516 28.5687 2.82305 29.8378 3.40749L30.3339 1.08451C29.6524 0.837976 28.7754 0.600554 27.6843 0.600554C24.8835 0.600554 22.9135 2.08813 22.8977 4.22023C22.8798 5.79647 24.305 6.67546 25.3764 7.20055C26.4815 7.73721 26.8519 8.08152 26.8462 8.56104C26.8386 9.29546 25.9652 9.62081 25.152 9.63312C23.7267 9.65529 22.901 9.24793 22.2425 8.94106L21.7284 11.3416C22.3915 11.645 23.613 11.9091 24.8779 11.9229C27.855 11.9229 29.8019 10.4525 29.8105 8.17584ZM18.0779 0.800539L13.4879 11.7509H10.4935L8.23461 3.0117C8.0978 2.47455 7.9784 2.27678 7.56193 2.04971C6.8807 1.67978 5.75605 1.33375 4.76733 1.1185L4.8341 0.800539H9.6548C10.2688 0.800539 10.8211 1.20938 10.9615 1.91647L12.1548 8.25318L15.1018 0.800539H18.0779Z" fill="#2251AA"/>
<path d="M8.83813 28.2323C8.83813 27.8836 8.9229 27.588 9.09252 27.3459C9.26194 27.1038 9.4932 26.9208 9.78633 26.7972C10.0793 26.6738 10.41 26.612 10.778 26.612C11.1897 26.612 11.5179 26.6521 11.7626 26.7319C12.0071 26.8119 12.1948 26.893 12.3256 26.9753L12.391 27.891H12.3693C12.2481 27.7892 12.0991 27.6993 11.9224 27.622C11.7455 27.5446 11.5579 27.4829 11.3593 27.4368C11.1606 27.3907 10.9644 27.3678 10.7708 27.3678C10.4657 27.3678 10.2186 27.4174 10.0297 27.5165C9.84079 27.6161 9.74631 27.7892 9.74631 28.0362C9.74631 28.2249 9.79106 28.373 9.88073 28.4791C9.97038 28.586 10.1048 28.6731 10.284 28.7409C10.4632 28.8086 10.6861 28.879 10.9524 28.9515C11.2042 29.0195 11.4404 29.0883 11.6608 29.1586C11.8811 29.2288 12.0736 29.3209 12.2384 29.4347C12.4031 29.5484 12.5326 29.699 12.6271 29.8851C12.7216 30.0716 12.7687 30.3103 12.7687 30.6008C12.7687 31.1628 12.5859 31.5926 12.2203 31.8903C11.8544 32.1884 11.3423 32.3374 10.6836 32.3374C10.3542 32.3374 10.0224 32.2923 9.68821 32.2029C9.3541 32.1133 9.08269 31.9934 8.87441 31.8434L8.81641 30.9205H8.83813C9.0803 31.124 9.37102 31.2838 9.71006 31.4001C10.049 31.5163 10.3905 31.5744 10.7345 31.5744C11.4658 31.5744 11.8316 31.3224 11.8316 30.8188C11.8316 30.6398 11.7903 30.4942 11.7081 30.3829C11.6256 30.2716 11.4925 30.1782 11.3084 30.1031C11.1244 30.0282 10.8845 29.9519 10.5892 29.8743C10.3567 29.8115 10.1362 29.7435 9.92805 29.6709C9.71976 29.598 9.53322 29.5039 9.36863 29.3874C9.20382 29.2711 9.07432 29.1211 8.97974 28.9372C8.88537 28.753 8.83813 28.5182 8.83813 28.2323Z" fill="white"/>
<path d="M13.4951 32.2354V26.7138H17.055V27.5131H14.4685V28.9878H16.5102V29.758H14.4685V31.4362H17.055V32.2354H13.4951Z" fill="white"/>
<path d="M18.53 29.4745C18.53 29.8913 18.6062 30.2546 18.7588 30.5643C18.9112 30.8744 19.1304 31.1143 19.4162 31.2838C19.702 31.4535 20.0459 31.5379 20.448 31.5379C20.8596 31.5379 21.2011 31.4762 21.4724 31.3527C21.7435 31.2293 21.981 31.0683 22.1845 30.8698H22.2062L22.1044 31.836C21.8912 31.9812 21.6396 32.1012 21.3489 32.1955C21.0582 32.2901 20.7192 32.3374 20.3317 32.3374C19.8958 32.3374 19.5046 32.2635 19.1584 32.1157C18.812 31.968 18.5165 31.7645 18.272 31.5054C18.0274 31.2464 17.8409 30.9422 17.7125 30.5935C17.5841 30.2448 17.52 29.8718 17.52 29.4745C17.52 29.0729 17.5841 28.6985 17.7125 28.3523C17.8409 28.0059 18.0274 27.703 18.272 27.4439C18.5165 27.1851 18.8107 26.9815 19.1546 26.8337C19.4986 26.6859 19.8861 26.612 20.3172 26.612C20.7046 26.612 21.0388 26.6521 21.3198 26.7319C21.6007 26.8119 21.8405 26.927 22.0392 27.077L22.1408 28.0653H22.119C21.9156 27.8665 21.6758 27.7082 21.3997 27.5893C21.1236 27.4708 20.8015 27.4114 20.4335 27.4114C20.0314 27.4114 19.6887 27.4958 19.4055 27.6656C19.1221 27.8351 18.9051 28.0749 18.7552 28.385C18.605 28.6949 18.53 29.058 18.53 29.4745Z" fill="white"/>
<path d="M25.2796 31.5089C25.7784 31.5089 26.1416 31.4012 26.3695 31.1857C26.5968 30.9702 26.7108 30.6033 26.7108 30.0848V26.7139H27.5245V30.1358C27.5245 30.9109 27.3295 31.4715 26.9396 31.8177C26.5497 32.164 25.9816 32.3374 25.236 32.3374C24.4947 32.3374 23.9184 32.1652 23.5069 31.8215C23.0951 31.4773 22.8894 30.9159 22.8894 30.1358V26.7139H23.8628V30.0632C23.8628 30.5816 23.9728 30.9522 24.1935 31.175C24.4137 31.3976 24.7757 31.5089 25.2796 31.5089Z" fill="white"/>
<path d="M30.5471 27.4837H29.4496V29.3437H30.5471C30.9003 29.3437 31.1559 29.2676 31.3133 29.1151C31.4709 28.9622 31.5495 28.7287 31.5495 28.414C31.5495 28.0992 31.4709 27.8652 31.3133 27.7128C31.1559 27.5601 30.9003 27.4837 30.5471 27.4837ZM28.4761 32.2354V26.7138H30.8084C31.1717 26.7138 31.4852 26.7863 31.7492 26.9315C32.0132 27.0769 32.2154 27.2769 32.3558 27.531C32.4965 27.7854 32.5667 28.0723 32.5667 28.392C32.5667 28.7698 32.4625 29.0994 32.2541 29.3801C32.0458 29.6609 31.7625 29.8476 31.4042 29.9395L32.8211 32.2354H31.7022L30.4235 30.0702H29.4496V32.2354H28.4761Z" fill="white"/>
<path d="M33.5474 32.2354V26.7138H37.1074V27.5131H34.5209V28.9878H36.5627V29.758H34.5209V31.4362H37.1074V32.2354H33.5474Z" fill="white"/>
</svg>
